<svg width="167" height="88" viewBox="0 0 167 88" fill="none" xmlns="http://www.w3.org/2000/svg">
<path d="M51.537 26.0133C51.463 26.3451 51.463 26.6769 51.537 27.0087C51.537 27.1746 51.537 27.3737 51.537 27.5396C51.537 27.9046 51.537 28.3027 51.6111 28.6677C51.7593 30.2936 52.0556 31.9194 52.5 33.5121C52.7593 34.4743 53.0926 35.4365 53.4259 36.3656C53.4259 36.3988 53.4259 36.432 53.4259 36.432C54.2778 38.5887 55.4259 40.5795 57.1667 42.2717C59.0185 44.0966 61.2778 45.258 63.9815 45.6893C65.0185 45.8552 66.0185 45.8884 67.0926 45.8884C67.3148 45.8884 67.5 45.822 67.6852 45.7225C68.7222 45.1584 69.8704 44.7271 71.0556 44.4948C72.3889 44.2625 73.7222 44.2957 74.9815 44.8598C75.2407 44.9925 75.5741 45.0589 75.8333 45.1252C78.5 45.822 79.3519 46.3529 80.9074 46.6184C81.2407 46.6847 81.5 46.7179 81.6481 46.7179C81.7963 46.7843 82.0556 46.8174 82.3148 46.8838C82.4259 46.8838 82.7222 46.9502 83.2407 46.9502C83.5741 46.9502 84.0926 46.9502 84.7222 46.8174C85.2407 46.7179 85.7222 46.6515 86.2407 46.3861C86.5 46.2534 86.7963 46.2202 87.0926 46.2202C87.3889 46.2202 87.5741 46.3529 87.6111 46.6515C87.6481 46.8506 87.6111 47.0829 87.5 47.2488C87.2407 47.7465 86.8333 48.1447 86.3148 48.4101C85.1667 49.0737 83.9074 49.5051 82.5 49.6378C82.4259 49.6378 82.3518 49.671 82.2778 49.671C82.2037 49.6378 82.1296 49.6378 82.0556 49.671H80.537C80.2407 49.6046 79.7593 49.5714 79.2037 49.4719C78.537 49.3392 77.9815 49.2064 77.463 49.0405C76.9074 48.8746 76.3519 48.7419 75.7593 48.6092C75.5 48.5428 75.2037 48.5428 74.9444 48.576C74.6481 48.6092 74.5 48.7751 74.537 49.0405C74.537 49.2728 74.6481 49.4719 74.8333 49.6378C75.9444 50.6 77.2407 51.2304 78.7593 51.5291C79.0556 51.5954 79.3889 51.6618 79.7222 51.6618C79.7963 51.695 79.8704 51.7281 79.9444 51.695C80.463 51.7613 80.9815 51.7613 81.5 51.695C81.537 51.7281 81.6111 51.7281 81.6481 51.695C82.4259 51.6618 83.1667 51.4959 83.9444 51.33C84.7963 51.1309 85.537 50.7659 86.3148 50.4009C88.0185 49.5714 89.7593 48.8083 91.5 48.0451C92.537 47.5806 93.6111 47.1492 94.7222 46.7843C95.2778 46.5852 95.8704 46.4856 96.5 46.4525C96.7222 46.4525 96.9074 46.4856 97.1296 46.5188C97.2037 46.5188 97.2778 46.5852 97.3518 46.6184C97.537 46.7511 97.5741 46.8838 97.3518 47.0497C96.9815 47.3151 96.6481 47.5806 96.2778 47.8792C95.2037 48.7087 94.1296 49.5382 93.0185 50.3346C92.537 50.6664 92.0185 50.965 91.537 51.2636C90.5741 51.8277 89.6852 52.4249 88.7593 53.0222C87.0926 54.1171 85.2407 54.8139 83.2407 55.3116C80.9815 55.8757 78.6852 56.0748 76.3518 55.9752C74.9444 55.9089 73.537 55.743 72.1296 55.5107C71.3889 55.378 70.6481 55.2121 69.9074 55.0462C68.9444 54.8139 67.9815 54.5153 67.0556 54.2167C66.3889 54.0176 65.8333 53.6526 65.2407 53.354C62.9444 52.1595 60.7963 50.7991 58.7593 49.2396C58.6852 49.1733 58.6111 49.1069 58.5 49.0737L58.4259 49.0073C58.4259 49.0073 58.2778 48.8414 58.2037 48.7751C57.5741 48.3106 57.0185 47.7797 56.463 47.282C55.7222 46.6184 55.0556 45.8884 54.3889 45.1252C54.1296 44.8266 53.7963 44.528 53.537 44.2294C52.1296 42.6035 51.0185 40.7786 50.1296 38.8873C49.5741 37.6928 49.0926 36.432 48.6852 35.1711C48.2407 33.7112 47.9444 32.218 47.7222 30.6917C47.5 29.1323 47.5 27.5728 47.5 26.0133C47.5 24.4538 47.7222 22.9939 48.1296 21.5339C49.1667 17.9173 50.8333 14.5329 53.2037 11.4471C53.8333 10.6176 54.537 9.82124 55.2778 9.09127C55.7963 8.5272 56.3889 8.0295 56.9815 7.53179C57.7222 6.86818 58.5 6.30411 59.3148 5.74005C59.463 5.6405 59.5741 5.50778 59.537 5.34188C59.6111 5.17598 59.6111 5.04326 59.537 4.87735C59.6111 4.74463 59.537 4.57873 59.537 4.41283C59.537 3.91512 59.6111 3.41741 59.6852 2.95289C59.7593 2.65426 59.9074 2.35564 60.0926 2.12338C60.2037 1.99065 60.3519 1.92429 60.5 1.89111C60.6111 1.89111 60.6111 1.95747 60.6111 2.02384C60.537 2.02384 60.4259 2.0902 60.537 2.18974C60.3148 3.15197 60.2778 4.14738 60.3519 5.1428C60.3519 5.20916 60.3519 5.24234 60.3519 5.3087C60.3519 5.40824 60.3519 5.4746 60.3519 5.57414C60.3519 6.37047 60.6111 7.13362 60.9074 7.86359C61.0556 8.26176 61.2407 8.62674 61.5 8.95855C61.5 8.95855 61.5 9.05809 61.5 9.09127C60.1296 9.95396 58.8704 10.9826 57.7222 12.1107C55.463 14.3338 53.8333 16.8887 52.7593 19.7422C52.537 20.3726 52.3148 20.9699 52.1296 21.6003C51.9444 22.3966 51.7222 23.193 51.6481 23.9893C51.6481 24.0225 51.6481 24.0888 51.6481 24.122C51.537 24.6529 51.5 25.1838 51.463 25.7147C51.463 25.8142 51.463 25.9138 51.3889 26.0133H51.537Z" fill="#363739"/>
<path d="M87.7968 14.7321C87.6116 14.9312 87.4264 15.1635 87.2782 15.3957L86.6857 16.1589C86.6857 16.1589 86.6116 16.1921 86.6116 16.2252C86.3153 16.5902 85.982 16.9884 85.7968 17.3866C85.7597 17.4197 85.7227 17.4197 85.7227 17.4861C85.3523 18.0502 85.0931 18.6806 84.982 19.3442C84.9449 19.3774 84.9449 19.4106 84.9449 19.4769C84.8338 20.041 84.8338 20.6382 85.019 21.2023C84.982 21.2687 85.019 21.335 85.056 21.4014V21.4677C85.056 21.4677 85.056 21.5341 85.1301 21.5341C85.2412 21.9323 85.4264 22.2973 85.4634 22.7286C85.4264 22.795 85.4264 22.8281 85.5005 22.8613C85.5745 23.1268 85.5745 23.3922 85.6486 23.6577C85.6486 23.724 85.6486 23.8236 85.6857 23.9563C85.6857 24.1222 85.7968 24.7194 85.8338 25.5489C85.8708 26.4116 85.8708 27.1748 85.8708 27.7057C85.8708 27.8716 85.8708 28.0707 85.8338 28.2366V28.4356C85.7227 29.1988 85.6486 29.9288 85.4634 30.6919C85.3523 31.1233 85.2042 31.5214 85.0931 31.9528C85.056 32.0523 84.019 33.9436 83.9079 34.1759C83.9079 34.1759 83.8708 34.2422 83.8338 34.2754C83.7968 34.3749 83.7227 34.4413 83.6486 34.5408C83.6116 34.5408 83.6116 34.574 83.6116 34.6072C83.4634 34.7399 83.3153 34.9058 83.2042 35.0717C83.1671 35.0717 83.1301 35.1049 83.1301 35.1381L83.056 35.2045C83.056 35.2045 82.9449 35.2045 82.9079 35.1713C82.6486 34.209 82.3523 33.2468 81.8708 32.3509C81.7227 32.0523 81.6116 31.7205 81.4634 31.4219C81.4264 31.3223 81.3523 31.256 81.3153 31.1564C81.019 30.5592 80.6857 29.8956 80.3153 29.232C80.056 28.8006 79.7968 28.3693 79.5375 27.9711C79.5375 27.9379 79.5005 27.9048 79.4634 27.8716C79.2042 27.407 78.9079 26.9757 78.6116 26.5444C78.1671 25.8807 77.6857 25.2171 77.1301 24.5203C76.9449 24.2881 76.7968 24.089 76.6116 23.8899C76.5005 23.7572 76.4634 23.724 76.5745 23.8236C76.3894 23.5581 76.1671 23.3259 75.9449 23.0936C75.7968 22.9277 75.7968 22.9277 75.9079 23.0604C76.0931 23.2595 75.8708 22.994 75.8338 22.994C75.7968 22.8945 75.6857 22.795 75.6116 22.7286C75.6116 22.6954 75.5745 22.6622 75.5375 22.6622C75.4634 22.5627 75.3894 22.4632 75.3153 22.3968C75.3153 22.3636 75.2782 22.3304 75.2412 22.3304C75.0931 22.0982 74.9079 21.9323 74.6857 21.7332C74.5375 21.6005 74.5375 21.5673 74.6486 21.6668C74.8338 21.7996 74.6116 21.6005 74.5745 21.6005C74.5005 21.4677 74.3894 21.3682 74.2412 21.2687C74.1301 21.2023 74.1301 21.1691 74.2042 21.2023C74.3153 21.2023 74.1671 21.1359 74.1301 21.1359C74.1301 21.1028 74.0931 21.0696 74.056 21.0696C73.982 20.9369 73.8708 20.8373 73.7227 20.7378C73.6116 20.6714 73.6116 20.6714 73.6857 20.7046C73.7968 20.771 73.6486 20.6382 73.6116 20.6382C73.6116 20.6051 73.5745 20.5719 73.5375 20.5719C73.5375 20.5387 73.5005 20.5055 73.4634 20.5055C73.3153 20.3064 73.0931 20.1405 72.9079 19.9746C72.7968 19.8751 72.7597 19.8419 72.8708 19.9414H72.8338C72.8338 19.9414 72.8338 19.9083 72.7968 19.8751H72.7597C72.7597 19.8751 72.7227 19.8087 72.7227 19.7755C72.7227 19.7424 72.6857 19.7092 72.6486 19.7092C72.6486 19.676 72.6116 19.6428 72.5745 19.6428C72.5745 19.6096 72.5375 19.5765 72.5005 19.5765C72.5005 19.5433 72.4634 19.5101 72.4264 19.5101C72.4264 19.4769 72.3894 19.4437 72.3523 19.4437C72.3523 19.4106 72.3153 19.3774 72.2782 19.3774C72.2782 19.3442 72.2412 19.311 72.2042 19.311C72.2042 19.2778 72.1671 19.2447 72.1301 19.2447C72.1301 19.2115 72.0931 19.1783 72.056 19.1783C72.056 19.1451 72.019 19.1119 71.982 19.1119C71.982 19.0788 71.9449 19.0456 71.9079 19.0456C71.9079 19.0124 71.8708 18.9792 71.8338 18.9792C71.8338 18.946 71.7968 18.9129 71.7597 18.9129C71.7597 18.8797 71.7227 18.8465 71.6857 18.8465C71.6857 18.8133 71.6486 18.7801 71.6116 18.7801C71.6116 18.747 71.5745 18.7138 71.5375 18.7138C71.5375 18.6806 71.5005 18.6474 71.4634 18.6474C71.4634 18.6142 71.4264 18.581 71.3894 18.581C71.3894 18.5479 71.3523 18.5147 71.3153 18.5147C71.3153 18.4815 71.2782 18.4483 71.2412 18.4483C71.2412 18.4151 71.2042 18.4151 71.1671 18.382C71.1671 18.3488 71.1301 18.3488 71.0931 18.3156H71.019L70.982 18.2824V18.2161C70.982 18.2161 70.9449 18.2161 70.9079 18.1829H70.8708C70.7227 18.017 70.5745 17.8843 70.4264 17.7847C70.4264 17.7515 70.3894 17.7184 70.3523 17.7184C70.3523 17.6852 70.3153 17.652 70.2782 17.652C70.2782 17.6188 70.2412 17.5856 70.2042 17.5856C70.2042 17.5525 70.1671 17.5193 70.1301 17.5193C70.1301 17.4861 70.0931 17.4861 70.056 17.4861C70.056 17.4861 70.056 17.4529 70.019 17.4529H69.982C69.982 17.4529 69.9079 17.3202 69.8338 17.3202C69.8338 17.287 69.7968 17.2538 69.7597 17.2538C69.6857 17.1543 69.5745 17.0547 69.4634 16.9884C69.4634 16.9552 69.4264 16.922 69.3894 16.922C69.3894 16.8888 69.3523 16.8557 69.3153 16.8557C69.3153 16.8225 69.2782 16.7893 69.2412 16.7893C69.2412 16.7561 69.2042 16.7229 69.1671 16.7229C69.1671 16.6898 69.1301 16.6566 69.0931 16.6566C69.0931 16.6234 69.056 16.5902 69.019 16.5902C69.019 16.557 68.982 16.5239 68.9449 16.5239C68.9449 16.4907 68.9079 16.4575 68.8708 16.4575C68.8708 16.4243 68.8338 16.3911 68.7968 16.3911C68.7968 16.358 68.7597 16.3248 68.7227 16.3248C68.7227 16.2916 68.6857 16.2584 68.6486 16.2584C68.6486 16.2252 68.6116 16.1921 68.5745 16.1921C68.5745 16.1589 68.5375 16.1257 68.5005 16.1257C68.3523 15.9266 68.1301 15.7607 67.9449 15.5948H67.9079C67.9079 15.5948 67.9079 15.5284 67.8708 15.5284C67.8708 15.5284 67.8338 15.5284 67.8338 15.4953C67.8338 15.4953 67.7968 15.3957 67.7597 15.3957C67.7597 15.3625 67.7227 15.3294 67.6857 15.3294C67.6857 15.2962 67.6486 15.263 67.6116 15.263C67.5745 15.1635 67.5005 15.0971 67.4264 15.0639H67.3894C67.3894 15.0639 67.3153 14.9644 67.2782 14.9312C67.2782 14.898 67.2412 14.8648 67.2412 14.8648C67.2412 14.8317 67.2042 14.7985 67.1671 14.7985C67.0931 14.6989 67.019 14.5994 66.9449 14.533C66.9449 14.4999 66.9079 14.4667 66.8708 14.4667C66.8338 14.4003 66.7968 14.3671 66.7597 14.334H66.7227L66.6857 14.2012C66.6857 14.168 66.6486 14.1349 66.6116 14.1349C66.6116 14.0685 66.5375 14.0353 66.5005 14.0021C66.5005 14.0021 66.4634 14.0021 66.4634 13.969C66.4634 13.9358 66.4264 13.9026 66.3894 13.8694C66.3894 13.8362 66.3523 13.8031 66.3153 13.8031C66.3153 13.7367 66.2782 13.7035 66.2042 13.6703C66.2042 13.6372 66.1671 13.604 66.1671 13.604C66.1671 13.5376 66.0931 13.5044 66.056 13.4713C66.056 13.4713 66.019 13.4713 66.019 13.4381C66.019 13.4049 65.982 13.3717 65.9449 13.3717C65.9079 13.3054 65.8708 13.239 65.7968 13.1726C65.7968 13.1726 65.7597 13.1063 65.7227 13.1063C65.6486 12.9404 65.5005 12.8077 65.3894 12.6418C65.3153 12.5422 65.3153 12.509 65.3523 12.5754C65.4264 12.6749 65.3153 12.4758 65.2412 12.4427C65.2412 12.4427 65.2412 12.3763 65.2042 12.3763C65.1671 12.2768 65.0931 12.1772 65.019 12.1109C64.982 12.0777 64.9449 12.0445 64.982 12.0445C64.982 12.0445 64.8338 11.7459 64.7227 11.6132H64.6857C64.6116 11.4141 64.5375 11.2814 64.4264 11.1486C64.3523 11.0491 64.3523 11.0491 64.3894 11.1486C64.3153 10.9495 64.2042 10.7836 64.0931 10.6177C64.0931 10.6177 64.0931 10.5514 64.056 10.5514C64.019 10.4518 63.982 10.3523 63.9079 10.2859H63.8708C63.7968 10.0869 63.7227 9.92095 63.6116 9.75505C63.6116 9.75505 63.6116 9.68869 63.5745 9.68869C63.3523 9.12462 63.0931 8.59374 62.9079 8.02967C62.6116 7.2997 62.4634 6.53655 62.3153 5.74022C62.3153 5.67386 62.3153 5.6075 62.2412 5.50795C62.2412 5.40841 62.2412 5.34205 62.2412 5.24251C62.2412 5.10979 62.2412 4.97707 62.2412 4.84435C62.2412 4.84435 62.2412 4.7448 62.2412 4.71162C62.2412 4.11438 62.2412 3.48395 62.2412 2.8867C62.2412 1.89129 62.5005 0.929053 62.7597 0H62.8338L63.2782 0.796331C63.2782 0.796331 63.3894 1.12814 63.5375 1.22768C63.6116 1.32722 63.6486 1.42676 63.7227 1.5263C63.7227 1.65902 63.7968 1.75856 63.9079 1.82492C63.982 1.92447 64.019 2.02401 64.0931 2.12355C64.056 2.22309 64.1301 2.25627 64.2042 2.25627C64.2042 2.32263 64.2782 2.38899 64.3153 2.45535C64.3153 2.48853 64.3523 2.52171 64.3523 2.45535C64.3523 2.45535 64.3894 2.52171 64.4264 2.55489H64.4634C64.5375 2.75398 64.6486 2.8867 64.7597 3.01942H64.7968C64.7968 3.01942 64.9079 3.25168 65.019 3.31804H65.056C65.1671 3.58349 65.3153 3.78257 65.5005 3.98165H65.5375C65.5375 3.98165 65.6486 4.21392 65.7597 4.31346C65.7968 4.37982 65.8338 4.44618 65.8708 4.47936H65.9079C65.9079 4.47936 66.019 4.7448 66.1301 4.81116C66.1671 4.87753 66.2042 4.94389 66.2412 4.97707H66.2782C66.2782 4.97707 66.3523 5.14297 66.3894 5.17615C66.3894 5.17615 66.4264 5.20933 66.4264 5.17615C66.4264 5.17615 66.5005 5.27569 66.5375 5.34205C66.5375 5.37523 66.5745 5.40841 66.5745 5.34205C66.5745 5.34205 66.6857 5.54113 66.7968 5.64068H66.8338C66.8338 5.64068 67.019 5.9393 67.1671 6.07202C67.1671 6.07202 67.1671 6.13838 67.2042 6.13838C67.2412 6.23792 67.3153 6.33747 67.4264 6.40383H67.4634C67.4634 6.40383 67.5375 6.56973 67.6116 6.63609C67.6486 6.70245 67.6857 6.76881 67.7597 6.83517C67.7968 6.93471 67.8708 7.00107 67.9449 7.06744C67.982 7.10062 68.019 7.1338 67.982 7.06744C68.1671 7.36606 68.3894 7.6315 68.6486 7.89695H68.6857C68.6857 7.89695 68.6857 7.96331 68.7227 7.96331C68.7227 7.96331 68.7227 8.02967 68.7597 8.02967C68.7597 8.09603 68.8338 8.12921 68.8708 8.19557H68.9079C68.9079 8.19557 68.982 8.36147 69.056 8.39465C69.0931 8.39465 69.1301 8.46101 69.1671 8.52737C69.1671 8.52737 69.2042 8.59374 69.2412 8.59374C69.2412 8.6601 69.3153 8.69328 69.3523 8.72646C69.3523 8.72646 69.3894 8.75964 69.3894 8.72646C69.3894 8.72646 69.4634 8.85918 69.5375 8.89236H69.5745C69.5745 8.89236 69.5745 8.89236 69.6116 8.89236C69.6116 8.89236 69.6486 8.89236 69.6486 8.95872C69.6486 9.02508 69.6857 9.02508 69.7227 9.02508C69.7597 9.09144 69.7968 9.12462 69.8338 9.1578H69.8708C69.8708 9.1578 69.982 9.35689 70.056 9.42325H70.0931C70.0931 9.42325 70.0931 9.45643 70.1301 9.48961C70.1671 9.48961 70.1301 9.48961 70.1671 9.55597C70.2042 9.62233 70.2412 9.68869 70.3153 9.72187C70.3523 9.72187 70.3894 9.75505 70.3523 9.72187C70.3523 9.72187 70.3523 9.72187 70.3894 9.72187C70.3894 9.72187 70.4264 9.82141 70.4634 9.82141C70.5005 9.88777 70.5375 9.95413 70.6116 9.98731C70.6486 9.98731 70.6857 9.98731 70.6486 9.98731H70.6857C70.6857 9.98731 70.8708 10.2528 70.982 10.3191H71.019C71.019 10.3191 71.019 10.3523 71.056 10.3855C71.0931 10.3855 71.056 10.3855 71.0931 10.3855C71.0931 10.3855 71.1301 10.485 71.1671 10.485C71.2412 10.5846 71.3153 10.6841 71.4264 10.7505C71.5005 10.7836 71.5005 10.8168 71.4634 10.7505C71.3894 10.7505 71.6857 11.0159 71.8338 11.1154C71.9449 11.1818 71.9449 11.1818 71.8708 11.1154C71.7597 11.0491 71.8708 11.1154 71.9079 11.1154C71.9079 11.1154 71.9079 11.1154 71.9449 11.1154H71.982C71.982 11.1154 72.019 11.1818 72.056 11.1818C72.1671 11.3145 72.2782 11.4473 72.4264 11.5468H72.4634V11.6132H72.5005C72.5005 11.6132 72.5005 11.6132 72.5375 11.6132H72.5745C72.5745 11.6132 72.5869 11.6132 72.6116 11.6132H72.6486C72.6486 11.6132 72.6857 11.6795 72.7227 11.7127C72.7227 11.7127 72.7597 11.7791 72.7968 11.7791C72.7968 11.7791 72.8338 11.8454 72.8708 11.8454C73.2042 12.1772 73.5375 12.509 73.9079 12.7745C73.9079 12.8077 73.9449 12.8408 73.982 12.8408C74.056 12.9404 74.1301 13.0067 74.2042 13.0399C74.2042 13.0731 74.2412 13.0731 74.2412 13.0731C74.4264 13.239 74.6116 13.4381 74.8338 13.5708C74.8338 13.604 74.8708 13.6372 74.9079 13.6372C74.9079 13.6703 74.9449 13.6703 74.982 13.6703C75.2412 13.9026 75.5005 14.1017 75.7968 14.3008C75.7968 14.334 75.8338 14.334 75.8708 14.334C76.8708 15.0639 77.9449 15.6944 79.1301 16.1589C79.1301 16.1921 79.1671 16.1921 79.2042 16.1921L79.4264 16.2916C79.4264 16.2916 79.4634 16.358 79.5005 16.3248C79.6486 16.358 79.7227 16.2916 79.8338 16.2252C80.3153 15.9598 80.7968 15.6944 81.2042 15.3957C81.4634 15.1966 81.5005 15.1966 81.2782 15.3625C81.6116 15.1966 81.9079 14.9644 82.1671 14.7321C82.3523 14.5662 82.3523 14.5662 82.2042 14.6989C81.982 14.898 82.4264 14.5662 82.5375 14.4667C82.6116 14.4003 82.6116 14.4003 82.5745 14.4335C82.5005 14.4999 82.6486 14.4003 82.6486 14.3671C82.8338 14.3008 82.8708 14.1349 83.019 14.0685C83.1301 14.0353 83.1301 14.0021 83.0931 14.0353C83.3153 13.9358 83.4634 13.7367 83.6116 13.5708C83.7227 13.4713 83.7227 13.4713 83.6857 13.5708C83.6116 13.7367 83.7227 13.5376 83.7597 13.5044C84.0931 13.2722 84.3894 13.0399 84.6486 12.7413C84.8708 12.4758 85.2042 12.3099 85.4264 12.0777C85.7227 11.7791 85.982 11.4804 86.2782 11.1818C86.3153 11.1818 86.3153 11.1818 86.3153 11.1154C86.3153 11.1154 86.3523 11.1154 86.3523 11.0491C86.5005 10.9495 86.6116 10.8168 86.6857 10.6841C86.7227 10.5846 86.7597 10.5846 86.7227 10.6841C87.3523 10.0537 87.8708 9.39007 88.3894 8.69328C88.4264 8.69328 88.4264 8.69328 88.4264 8.62692C88.8338 8.09603 89.2412 7.53196 89.5745 6.93471C89.6116 6.93471 89.6116 6.93471 89.6116 6.93471C89.982 6.40383 90.2782 5.83976 90.5375 5.27569C90.5745 5.27569 90.5745 5.27569 90.5745 5.20933C90.6857 4.91071 90.9079 4.64526 90.982 4.34664C91.019 4.34664 91.019 4.34664 91.019 4.28028C91.1301 3.88211 91.3523 3.55031 91.5005 3.18532C91.6116 2.8867 91.6486 2.58807 91.8338 2.32263C92.1301 3.18532 92.2412 4.51254 92.1301 5.6075C92.0931 5.83976 92.0931 6.03884 92.056 6.2711C92.019 6.2711 92.019 6.37065 92.019 6.40383C91.8708 6.93471 91.7227 7.4656 91.5745 7.99649C91.5375 7.99649 91.5005 7.99649 91.5375 8.06285C91.5375 8.06285 91.5375 8.12921 91.5005 8.19557C91.4634 8.19557 91.4264 8.19557 91.4634 8.26193C91.4264 8.36147 91.3894 8.49419 91.3894 8.59374C91.3523 8.59374 91.3153 8.59374 91.3523 8.6601C91.3523 8.6601 91.3523 8.75964 91.3153 8.79282C91.2782 8.79282 91.2412 8.79282 91.2412 8.85918C91.1671 9.19098 90.9449 9.45643 90.8708 9.78823C90.8338 9.78823 90.8338 9.78823 90.8338 9.85459C90.5375 10.3855 90.2412 10.9164 89.982 11.4473C89.9449 11.4473 89.9079 11.4473 89.9449 11.5468H89.9079C89.4634 12.2436 88.982 12.9072 88.5375 13.604C88.3153 13.8031 88.0931 14.0353 87.8708 14.2344L87.7968 14.7321Z" fill="#00796B"/>
<path d="M108.907 28.4356C108.537 28.5352 108.13 28.6679 108.13 28.6679C107.833 28.7343 107.5 28.8338 107.093 28.9333C106.945 28.9333 106.796 28.9665 106.648 28.9997C106.5 28.9997 106.352 29.0329 106.241 29.0661C106.019 29.0993 105.796 29.1324 105.537 29.1656C104.648 29.232 103.87 29.3315 103.204 29.4311C102.982 29.4311 102.019 29.597 100.796 29.8292C100.463 29.8956 100.204 29.9288 99.9815 29.9619H99.7223C99.7223 29.9619 99.426 30.0283 99.3149 30.0615C99.2038 30.0283 99.1297 30.0615 99.0186 30.1278C98.9075 30.1278 98.7964 30.1278 98.7223 30.1942C98.6112 30.1942 98.5001 30.1942 98.426 30.2606C98.3149 30.2606 98.2408 30.2606 98.1297 30.3269C97.9445 30.3269 97.7593 30.3601 97.6112 30.4597C97.426 30.4597 97.2778 30.4928 97.0927 30.5924C97.0186 30.5924 96.9815 30.5924 96.9445 30.6587H96.8704C96.8704 30.6587 96.6852 30.6256 96.6482 30.7251C96.6482 30.7915 96.6112 30.7915 96.5741 30.7583C96.5371 30.6919 96.426 30.7583 96.389 30.8246C96.3149 30.8246 96.2408 30.8246 96.1667 30.891C96.0927 30.891 96.0186 30.891 95.9445 30.9574C95.8704 30.9574 95.7964 30.9574 95.7223 31.0237H95.6482C95.6482 31.0237 95.2778 31.1233 95.1297 31.1896C95.0556 31.1896 94.9815 31.1896 94.9075 31.256C94.8704 31.2892 94.8334 31.3223 94.8334 31.2892C94.8334 31.256 94.7223 31.2892 94.6853 31.3223C94.6112 31.3223 94.5371 31.3223 94.463 31.3887C94.389 31.3887 94.3519 31.3887 94.3149 31.4551C94.3149 31.4882 94.2778 31.5214 94.2408 31.4882C94.2038 31.4551 94.1297 31.4882 94.0927 31.5546C94.0186 31.5546 93.9445 31.5546 93.9075 31.621H93.8704C93.8704 31.621 93.7593 31.621 93.7223 31.6873C93.6482 31.6873 93.5741 31.7205 93.5001 31.7537C93.389 31.8201 93.2778 31.7869 93.2038 31.8864C93.1297 31.8864 93.0556 31.9196 92.9815 31.9528C92.9075 31.9528 92.8704 31.9528 92.8334 32.0191C92.7593 32.0191 92.7223 32.0191 92.6852 32.0855C92.6852 32.1187 92.6482 32.1519 92.6112 32.1187C92.5741 32.0855 92.5001 32.1187 92.463 32.185C92.389 32.185 92.3519 32.185 92.3149 32.2514C92.2408 32.2514 92.2038 32.2514 92.1667 32.3178C92.1297 32.3178 92.1297 32.3509 92.0927 32.3509C92.0556 32.3509 92.0186 32.3509 92.0186 32.3841C92.0186 32.3841 92.0186 32.4173 91.9445 32.4173C91.9445 32.4173 91.9198 32.4284 91.8704 32.4505C91.8704 32.4505 91.8704 32.4837 91.7964 32.4837C91.7223 32.4837 91.6852 32.5168 91.6482 32.55C91.5741 32.55 91.5371 32.55 91.5001 32.6164C91.426 32.6164 91.389 32.6164 91.3519 32.6827C91.2778 32.6827 91.2408 32.6827 91.2038 32.7491C91.1297 32.7491 91.0927 32.7491 91.0556 32.8155C90.9815 32.8155 90.9445 32.8155 90.9075 32.8818C90.8334 32.8818 90.7964 32.8818 90.7593 32.9482C90.6852 32.9482 90.6482 32.9814 90.6112 33.0145C90.5371 33.0145 90.5001 33.0477 90.463 33.0809C90.389 33.0809 90.3519 33.1141 90.3149 33.1473C90.2408 33.1473 90.2038 33.1805 90.1667 33.2136C90.0927 33.2136 90.0556 33.2468 90.0186 33.28C89.9445 33.28 89.9075 33.3132 89.8704 33.3464C89.8334 33.3464 89.7964 33.3463 89.7593 33.3795C89.7593 33.3795 89.7223 33.4127 89.6852 33.4127C89.6482 33.4127 89.6112 33.4127 89.6112 33.4459C89.6112 33.4459 89.6112 33.4791 89.5371 33.4791C89.5371 33.4791 89.5124 33.4901 89.463 33.5123C89.463 33.5123 89.426 33.5454 89.389 33.5454C89.3519 33.5454 89.3519 33.5454 89.3149 33.5786C89.2408 33.5786 89.2038 33.6118 89.1667 33.645C89.0927 33.645 89.0556 33.6782 89.0556 33.7113H89.0186C89.0186 33.7113 88.9445 33.7113 88.9445 33.7445C88.9075 33.7445 88.9075 33.7777 88.8704 33.7777C88.8334 33.7777 88.7964 33.7777 88.7964 33.8109C88.7223 33.8109 88.6852 33.8441 88.6482 33.8772C88.6112 33.8772 88.5741 33.9104 88.5741 33.9436C88.5741 33.9436 88.5741 33.9768 88.5001 33.9768C88.5001 33.9768 88.4754 33.9878 88.426 34.01C88.426 34.01 88.389 34.0431 88.3519 34.0431C88.3149 34.0431 88.3149 34.0431 88.3149 34.0763C88.2778 34.0763 88.2408 34.1095 88.2408 34.1427C88.2408 34.1427 88.2408 34.1759 88.1667 34.1759C88.1667 34.1759 88.142 34.1869 88.0927 34.209C88.0927 34.209 87.9815 34.2422 87.9815 34.2754C87.9445 34.2754 87.9075 34.2754 87.9075 34.3086C87.8704 34.3086 87.8704 34.3418 87.8334 34.3418C87.7964 34.3418 87.7964 34.3418 87.7593 34.3749C87.7223 34.3749 87.6852 34.4081 87.6852 34.4413C87.6482 34.4413 87.6482 34.4745 87.6112 34.4745C87.5741 34.4745 87.5741 34.4745 87.5371 34.5077C87.5001 34.5077 87.463 34.5408 87.463 34.574C87.463 34.574 87.463 34.6072 87.389 34.6072C87.389 34.6072 87.3643 34.6183 87.3149 34.6404C87.3149 34.6404 87.2408 34.6736 87.2408 34.7068C87.2408 34.7068 87.2408 34.7399 87.1667 34.7399C87.1667 34.7399 87.142 34.751 87.0927 34.7731C87.0927 34.7731 87.0186 34.8063 87.0186 34.8395C87.0186 34.8395 87.0186 34.8727 86.9445 34.8727C86.9445 34.8727 86.9198 34.8837 86.8704 34.9058C86.8704 34.9058 86.7964 34.939 86.7964 34.9722C86.7593 34.9722 86.7593 35.0054 86.7223 35.0054C86.6852 35.0054 86.6853 35.0054 86.6853 35.0386H86.6482C86.6482 35.0386 86.6852 35.0386 86.7964 34.939C86.6852 34.939 86.5741 35.0054 86.5371 35.1049C86.5371 35.1049 86.426 35.2045 86.3519 35.2376C86.389 35.1713 86.426 35.1381 86.426 35.1381C86.426 35.1381 86.3519 35.1713 86.3519 35.2045C86.3149 35.2045 86.3149 35.2376 86.2778 35.2376C86.2408 35.2376 86.2408 35.2376 86.2408 35.2708C86.2038 35.2708 86.1667 35.304 86.1667 35.3372C86.0927 35.3372 86.0556 35.3704 86.0556 35.4035C86.0556 35.4035 86.0186 35.4035 86.0186 35.4367C86.0186 35.4367 86.0186 35.4367 85.9445 35.4699C85.8704 35.4699 85.8704 35.5031 85.8704 35.5363C85.8334 35.5363 85.7964 35.5694 85.7964 35.6026C85.7223 35.6026 85.6852 35.669 85.6482 35.7022C85.6482 35.7022 85.6112 35.7022 85.6112 35.7353C85.6112 35.7685 85.5371 35.7685 85.5371 35.8017C85.5001 35.8017 85.463 35.8349 85.463 35.8681C85.426 35.8681 85.389 35.9012 85.389 35.9344C85.3519 35.9344 85.3519 35.9676 85.3149 35.9676H85.2778C85.7593 35.6358 86.0186 35.4367 86.0186 35.4367C86.0186 35.4367 85.7593 35.6358 85.2408 36.034C84.9075 36.2994 84.8704 36.2994 85.1667 36.0671H85.0927C85.0927 36.0671 85.0927 35.7022 85.0556 35.5363C85.0927 35.4367 85.0927 35.304 85.0556 35.2045C85.0927 35.0386 85.0927 34.8395 85.0927 34.6736C85.1297 34.574 85.1667 34.4413 85.1297 34.3418C85.1667 34.2754 85.1667 34.209 85.1667 34.1427C85.2038 34.0763 85.2408 34.01 85.2038 33.9436C85.2778 33.8772 85.2778 33.7777 85.2778 33.6782C85.3149 33.645 85.3149 33.6118 85.3149 33.5454C85.389 33.0477 85.6482 32.5832 85.7964 32.0855C85.8334 32.0855 85.8334 32.0523 85.8334 32.0191C86.2038 31.1896 86.7223 30.3933 87.2038 29.6301C87.2408 29.6301 87.2408 29.597 87.2408 29.5638C87.2778 29.5306 87.3519 29.4642 87.3519 29.3979H87.389C87.6112 29.0993 87.8334 28.8338 88.0186 28.5352H88.0556C88.0556 28.5352 88.2038 28.3361 88.2778 28.2697C88.5371 27.9711 88.7964 27.6725 89.0556 27.3407L89.7223 26.5775C89.9445 26.3785 90.2038 26.1794 90.426 25.9803L90.9075 25.5489C90.9075 25.5489 91.0186 25.4494 90.9445 25.5158C90.8334 25.6153 91.0186 25.5158 91.0186 25.4826C91.0927 25.4826 91.1297 25.4162 91.1667 25.383L91.2038 25.3499C91.2038 25.3499 91.3519 25.2835 91.389 25.2171C91.389 25.184 91.426 25.1508 91.426 25.184H91.463C91.463 25.184 91.5371 25.0844 91.5741 25.0512H91.6112C91.6112 25.0512 91.6852 24.9849 91.6852 24.9517C91.7223 24.9517 91.7593 24.9185 91.7593 24.8853C91.7593 24.8853 91.7593 24.8853 91.7964 24.8522C91.8334 24.8522 91.8334 24.819 91.8334 24.819C91.8704 24.7858 91.8704 24.7526 91.9075 24.7194C92.2038 24.4872 92.389 24.1885 92.5741 23.8899C92.9075 23.2595 93.0927 22.5959 93.1667 21.9323C93.2778 20.6382 93.2408 19.3442 93.2408 18.017C93.3149 17.8511 93.3149 17.7184 93.2778 17.5525C93.3519 17.1543 93.3519 16.7561 93.426 16.358C93.463 16.3248 93.463 16.2584 93.463 16.2252C93.5001 16.1257 93.5371 16.0593 93.5001 15.9598C93.5371 15.8934 93.5741 15.8271 93.5371 15.7607C93.5741 15.6612 93.6112 15.5948 93.5741 15.4953C93.6112 15.4621 93.6112 15.4289 93.6112 15.3625C93.6482 15.2962 93.6482 15.2298 93.6482 15.1635C93.6852 15.1303 93.6852 15.0971 93.6852 15.0307C93.8704 14.4999 93.9815 13.9358 94.1667 13.4049C94.6852 12.0777 95.389 10.85 96.463 9.82141C96.6482 9.62233 96.8704 9.45643 97.0556 9.29053C97.1297 9.29053 97.1667 9.35689 97.1667 9.42325C97.0186 9.75505 96.9075 10.12 96.7964 10.4518C96.6112 11.0159 96.463 11.5468 96.389 12.144C96.3519 12.144 96.3519 12.2436 96.3519 12.2768C96.2778 12.3431 96.2778 12.4427 96.3149 12.5422C96.2778 12.5422 96.2778 12.6418 96.2778 12.6749C96.1297 13.239 96.0556 13.8031 96.0556 14.4003C96.0186 14.4667 95.9815 14.533 96.0556 14.5994C96.0186 14.6658 96.0186 14.7653 96.0186 14.8648C95.9815 15.8603 96.0186 16.8889 96.0927 17.8843C96.0927 17.9506 96.1297 17.9838 96.1297 18.0502C96.0927 18.1497 96.1297 18.2824 96.1667 18.382C96.1667 18.4815 96.1667 18.6142 96.2038 18.7138C96.1667 18.8133 96.1667 18.8797 96.2408 18.9792C96.2408 19.0788 96.2408 19.1783 96.2778 19.2447C96.2408 19.311 96.2408 19.3774 96.3149 19.4437C96.3149 19.5433 96.3149 19.6428 96.3519 19.7092C96.3149 19.7424 96.3149 19.8087 96.389 19.8419C96.389 20.041 96.426 20.2069 96.5001 20.3728C96.463 20.4392 96.5001 20.4723 96.5371 20.5055C96.5741 20.8373 96.6852 21.2023 96.7593 21.5341C96.8334 21.8991 97.0186 22.2641 97.0556 22.6291C97.0556 22.6622 97.0556 22.6954 97.0927 22.6954C97.0927 22.7286 97.0927 22.795 97.1297 22.8281C97.1297 22.8613 97.1297 22.8945 97.1667 22.8945C97.3519 23.4918 97.5741 24.0558 97.8334 24.6199C97.9075 24.7526 97.9445 24.8853 98.1667 24.8853C98.2038 24.9185 98.2778 24.9517 98.3519 24.9185C98.426 24.9517 98.463 24.9517 98.5371 24.9517C98.6482 25.0181 98.7593 25.0181 98.8704 25.0181C99.2408 25.0844 99.6482 25.1176 100.056 25.1176C100.13 25.1508 100.241 25.1508 100.352 25.1508C101.426 25.184 102.5 25.1176 103.611 24.9849C103.685 24.9849 103.796 24.9849 103.833 24.9185C103.982 24.9517 104.167 24.9185 104.315 24.8853C104.537 24.8853 104.722 24.8522 104.907 24.7858C105.093 24.7858 105.315 24.7194 105.5 24.6863H105.574C105.907 24.6199 106.204 24.5535 106.537 24.4872C106.611 24.4872 106.648 24.4872 106.685 24.454C106.87 24.4872 107.056 24.4208 107.204 24.3545C107.241 24.3876 107.241 24.3545 107.278 24.3213C107.315 24.3213 107.389 24.2881 107.426 24.2881C107.5 24.2881 107.537 24.2881 107.574 24.2549C107.611 24.2549 107.685 24.2217 107.722 24.2217C107.759 24.2217 107.833 24.2217 107.87 24.1885H107.945C107.945 24.1885 108.056 24.1885 108.093 24.1554C108.13 24.1554 108.204 24.1222 108.241 24.1222C108.315 24.1222 108.352 24.1222 108.389 24.089C108.426 24.089 108.5 24.0558 108.537 24.0558C108.574 24.089 108.611 24.0558 108.648 24.0226H108.759C108.759 24.0226 108.833 24.0226 108.833 23.9895C108.87 23.9895 108.945 23.9895 108.982 23.9563C109.056 23.9563 109.093 23.9563 109.13 23.9231C109.167 23.9231 109.241 23.8899 109.278 23.8899C109.315 23.8899 109.352 23.8899 109.352 23.8567C109.5 23.8567 109.611 23.7904 109.722 23.7572C109.759 23.7572 109.833 23.7572 109.87 23.724C109.907 23.724 109.945 23.724 109.945 23.6908C110.019 23.6908 110.056 23.6908 110.093 23.6577C110.278 23.6245 110.463 23.5581 110.611 23.4918C110.685 23.4918 110.722 23.4918 110.759 23.4586C110.796 23.4586 110.833 23.4586 110.833 23.4254C110.87 23.4254 110.945 23.4254 110.982 23.3922C111.019 23.3922 111.056 23.3922 111.056 23.359C111.093 23.359 111.167 23.359 111.167 23.3259C111.278 23.359 111.315 23.2927 111.389 23.2595C111.463 23.2595 111.5 23.2595 111.537 23.2263C111.537 23.2263 111.574 23.1931 111.611 23.1931C111.648 23.1931 111.722 23.1931 111.759 23.16C111.833 23.16 111.87 23.1268 111.945 23.0936H112.019C112.019 23.0936 112.093 23.0604 112.093 23.0272C112.13 23.0272 112.204 23.0272 112.204 22.9941C112.241 22.9941 112.278 22.9609 112.315 22.9609C112.352 22.9609 112.389 22.9609 112.389 22.9277C112.463 22.9277 112.5 22.9277 112.537 22.8613H112.611C112.611 22.8613 112.685 22.8281 112.685 22.795C112.722 22.795 112.759 22.795 112.796 22.7618C112.833 22.7618 112.87 22.7286 112.907 22.7286C112.945 22.7286 112.945 22.7286 112.982 22.6954C113.056 22.6954 113.093 22.6954 113.167 22.6291H113.204C113.204 22.6291 113.278 22.5627 113.315 22.5627C113.352 22.5627 113.389 22.5627 113.389 22.5295C113.537 22.4963 113.685 22.4632 113.833 22.3636C113.907 22.3636 113.945 22.3636 113.945 22.3304C113.982 22.3304 114.019 22.2973 114.056 22.2973C114.093 22.2973 114.13 22.2973 114.167 22.2641H114.204C114.204 22.2641 114.315 22.2641 114.352 22.1977C114.389 22.1977 114.426 22.1645 114.463 22.1645C114.5 22.1645 114.5 22.1645 114.537 22.1314C115.093 21.9655 115.648 21.7332 116.167 21.5009C116.204 21.5009 116.278 21.5341 116.278 21.4678C116.315 21.4678 116.352 21.4346 116.352 21.4346C116.5 21.335 116.685 21.3682 116.796 21.2687C116.833 21.2687 116.907 21.3018 116.907 21.2355H116.945C116.945 21.2355 117.056 21.2355 117.093 21.2023C117.13 21.2023 117.167 21.1691 117.167 21.1691C117.5 21.0364 117.87 20.8705 118.204 20.7378C118.241 20.7378 118.315 20.771 118.315 20.7046H118.352C118.352 20.7046 118.463 20.7046 118.463 20.6714H118.5C118.5 20.6714 118.611 20.7046 118.611 20.6382H118.648C118.648 20.6382 118.759 20.6051 118.759 20.5387H118.796C118.796 20.5387 118.907 20.5719 118.907 20.5055H118.945C118.945 20.5055 119.019 20.5055 119.019 20.4723C119.167 20.406 119.315 20.3396 119.5 20.2733C119.463 20.4392 119.389 20.6051 119.278 20.8041C119.204 20.97 119.13 21.1359 119.019 21.3018C118.907 21.4678 118.796 21.6337 118.685 21.7996C118.537 21.9986 118.426 22.1977 118.278 22.3968C118.167 22.5627 118.056 22.6954 117.982 22.795C117.87 22.9609 117.796 23.0272 117.574 23.2927C117.463 23.4254 117.389 23.5581 117.315 23.6245C117.204 23.724 117.13 23.8236 117.019 23.9231C116.833 24.089 116.611 24.3213 116.352 24.5535C116.204 24.6863 115.945 24.8853 115.574 25.184C115.019 25.5821 114.5 25.8808 114.13 26.0798C113.019 26.7103 112.315 27.1084 111.278 27.5066C111.278 27.5066 110.241 27.9379 108.87 28.3361V28.4356H108.907Z" fill="#00796B"/>
<path d="M81.2408 36.7637C81.2408 36.7637 80.9445 36.996 80.7963 37.1951C80.7963 37.2282 80.7593 37.2614 80.7223 37.2946H80.6852C80.6852 37.2946 80.6482 37.2946 80.6111 37.361C80.6111 37.361 80.6111 37.4273 80.5371 37.4605C80.463 37.5269 80.463 37.4937 80.463 37.5269C80.426 37.5269 80.426 37.56 80.426 37.5932H80.3889C80.3889 37.5932 80.3519 37.6264 80.3519 37.6596C80.2778 37.7259 80.2037 37.7591 80.1667 37.8587C80.1297 37.8587 80.0926 37.8918 80.0926 37.925C80.0556 37.925 80.0186 37.9582 80.0186 37.9914C79.9815 37.9914 79.9445 38.0246 79.9815 38.0577C79.9074 38.0909 79.8704 38.1241 79.8334 38.1905C79.7963 38.2568 79.7223 38.3232 79.7223 38.3232H79.6852C79.6852 38.3232 79.6111 38.3895 79.6111 38.4227C79.5741 38.4227 79.5371 38.4559 79.5371 38.4891C79.5 38.4891 79.5 38.5223 79.5 38.5554C79.5 38.5554 79.5 38.5886 79.463 38.5886C79.463 38.5886 79.4507 38.5997 79.426 38.6218C79.426 38.6218 79.2408 38.7877 79.1667 38.9204C79.1297 38.9204 79.1297 38.9536 79.0926 38.9868C79.0556 38.9868 79.0556 39.02 79.0556 39.02C78.9815 39.0863 78.9074 39.1527 78.8704 39.2191C78.8334 39.2191 78.7963 39.2522 78.7963 39.2854C78.7593 39.3186 78.7593 39.3518 78.7223 39.3518C78.6852 39.3518 78.6852 39.385 78.6482 39.4181V39.4845C78.6482 39.4845 78.463 39.6172 78.426 39.6836C78.3889 39.6836 78.3519 39.7168 78.3519 39.7499C78.3149 39.7499 78.3149 39.7831 78.3149 39.8163L78.2037 39.9158H78.1667C78.1667 39.9158 78.1297 39.9822 78.0926 40.0154C78.0556 40.0154 78.0186 40.0486 78.0186 40.0817C77.9815 40.0817 77.9445 40.1149 77.9445 40.1481C77.9074 40.1481 77.9074 40.1813 77.9074 40.2145L77.7963 40.314H77.7593C77.7593 40.314 77.6111 40.4799 77.5741 40.5463C77.5371 40.5463 77.5 40.5795 77.5 40.6126C77.463 40.6126 77.463 40.6458 77.463 40.6458C77.3519 40.7122 77.2778 40.8117 77.2037 40.9113C77.1667 40.9113 77.1297 40.9444 77.1667 40.9776C77.0186 41.1103 76.8704 41.2431 76.7593 41.3758C76.7223 41.3758 76.7223 41.409 76.7223 41.4421C76.7223 41.4421 76.6852 41.4753 76.6852 41.5085C76.6111 41.5749 76.5371 41.6412 76.5 41.7076C76.463 41.7076 76.426 41.7408 76.426 41.774C76.3889 41.774 76.3889 41.8071 76.3889 41.8403C76.3889 41.8403 76.3519 41.8735 76.3519 41.9067C76.3149 41.9067 76.2408 41.9399 76.2408 41.973C76.1297 42.0394 76.0556 42.1058 76.0556 42.2385C75.9815 42.3048 75.9445 42.338 75.8704 42.4044C75.7223 42.4707 75.6111 42.6366 75.426 42.6035C75.3889 42.6035 75.3519 42.6035 75.3519 42.5703C75.3149 42.5371 75.2778 42.5039 75.2037 42.5039C75.1297 42.4707 75.0556 42.4044 74.9815 42.4376C74.9445 42.3712 74.8334 42.3712 74.7593 42.3712C74.6852 42.3048 74.5741 42.2717 74.463 42.2385C74.426 42.1721 74.3889 42.1721 74.3149 42.1721C74.2408 42.1389 74.1667 42.0726 74.0926 42.1058C74.0556 42.0394 74.0186 42.0394 73.9445 42.0394C73.9074 42.0062 73.8704 41.973 73.7963 41.973C73.7223 41.9399 73.6852 41.8735 73.5741 41.8735C73.5371 41.8403 73.5 41.8071 73.426 41.8071C73.3889 41.774 73.3519 41.7408 73.2778 41.7408C73.2037 41.7076 73.1297 41.6744 73.0556 41.6744C73.0186 41.6412 72.9815 41.6081 72.9074 41.6081C72.8704 41.5749 72.8334 41.5417 72.7593 41.5417C72.7223 41.5417 72.6852 41.5417 72.6852 41.5085C72.6852 41.4753 72.6111 41.4421 72.5371 41.4421C72.5 41.409 72.463 41.3758 72.3889 41.3758C72.3519 41.3094 72.2778 41.3094 72.2037 41.3094C72.1667 41.2762 72.1297 41.2431 72.0556 41.2431C72.0186 41.2099 71.9815 41.1767 71.9074 41.1767C71.8334 41.1435 71.7593 41.1103 71.6852 41.1103C71.6482 41.0772 71.6111 41.044 71.5371 41.044C71.5 41.0108 71.463 40.9776 71.3889 40.9776C71.3519 40.9776 71.3149 40.9776 71.3149 40.9444C71.3149 40.9113 71.2408 40.8781 71.1667 40.8781C71.1297 40.8449 71.0926 40.8117 71.0186 40.8117C70.9815 40.7454 70.9074 40.7454 70.8334 40.7454C70.7963 40.7122 70.7593 40.679 70.6852 40.679C70.6482 40.6458 70.6111 40.6126 70.5371 40.6126C70.5 40.6126 70.463 40.6126 70.463 40.5795C70.463 40.5463 70.3889 40.5131 70.3149 40.5131C70.2778 40.4799 70.2408 40.4467 70.1667 40.4467C70.1297 40.4136 70.0926 40.4136 70.0186 40.3804C70.2778 39.949 70.6111 39.5509 70.8334 39.0863H70.8704C71.0926 38.7545 71.2778 38.4559 71.463 38.1573H71.5C71.6852 37.8918 71.8704 37.6264 72.0186 37.3278C72.0556 37.3278 72.0556 37.2946 72.0556 37.2946C72.5371 36.5646 72.9445 35.8015 73.3889 35.0715C73.5371 34.8061 73.7223 34.5406 73.8334 34.242C73.8704 34.242 73.8704 34.2088 73.8704 34.2088C74.1667 33.7443 74.3889 33.2798 74.5741 32.8152C74.6111 32.8152 74.6111 32.7821 74.6111 32.7489C74.7593 32.5166 74.8704 32.2512 74.9445 32.0189C74.9815 32.0189 74.9815 31.9857 74.9815 31.9525C74.9815 31.9194 75.0186 31.8862 75.0186 31.853H75.0556C75.463 31.0567 75.7593 30.2272 76.0186 29.3976C76.1297 29.0658 76.2037 28.7009 76.2037 28.7009C76.2778 28.3691 76.3519 28.0704 76.3889 27.8382C76.5 27.1414 76.463 26.3782 76.2037 25.5819C76.2037 25.5155 76.1667 25.4492 76.1297 25.3828C76.5 25.7146 76.8334 26.0464 77.2037 26.3782L77.2778 26.4446C77.2778 26.4446 77.5371 26.6769 77.6482 26.8096C77.6852 26.8428 77.7223 26.9091 77.7593 26.9423C77.9074 27.1082 78.0926 27.2741 78.2408 27.44C78.426 27.6391 78.5741 27.8382 78.7223 28.0041C78.8334 28.1368 78.9815 28.3027 79.1667 28.535C79.2655 28.6677 79.3889 28.8446 79.5371 29.0658C79.7593 29.3313 79.9445 29.6299 80.1667 29.8954C80.2408 29.9617 80.2778 30.0613 80.3519 30.1276C80.7593 30.8576 81.1667 31.5876 81.5 32.3175C81.6482 32.6161 81.7593 32.8816 81.8334 33.147C81.8334 33.147 81.9074 33.4457 81.9445 33.7443C82.0186 34.2752 81.8704 35.3701 81.3149 36.6973L81.2408 36.7637Z" fill="#00796B"/>
<path d="M91.4265 44.1962C91.4265 44.1962 91.3894 44.3621 91.3894 44.4616C91.3524 44.5944 91.3154 44.7271 91.3524 44.8598C91.2413 45.1252 91.2783 45.4239 91.2783 45.7225C91.2783 45.8552 91.2043 45.9216 91.0561 45.9216C91.0191 45.8884 90.982 45.8884 90.945 45.8884H90.8709C90.4265 45.7557 89.982 45.6561 89.5376 45.6229H89.3894C89.3894 45.6229 89.0931 45.5234 88.945 45.4902H88.8709C88.6487 45.4239 88.4265 45.3243 88.2043 45.3575H88.0561C88.0561 45.3575 88.0191 45.2911 87.982 45.2911C87.8339 45.2911 87.6857 45.258 87.5376 45.2248C87.1672 45.1584 86.7598 45.0589 86.3894 44.9925C86.3154 44.9925 86.1302 44.9925 86.0191 44.8598C85.945 44.7603 85.945 44.6607 85.945 44.5944C85.945 44.2625 85.945 43.9639 85.8709 43.6321C85.8709 43.4994 85.8709 43.3667 85.8339 43.234C85.8339 43.0681 85.8339 42.9353 85.7969 42.7694C85.7598 42.2717 85.7228 41.774 85.6487 41.2763C85.6117 40.8781 85.5746 40.48 85.5376 40.0818C85.4635 39.5841 85.4265 39.0864 85.3524 38.5887C85.3524 38.3232 85.2783 38.0246 85.2413 37.7592C85.2043 37.6265 85.2783 37.4937 85.3524 37.3942C85.6117 36.996 85.908 36.6642 86.2043 36.2992C86.3894 36.067 86.4265 36.0338 86.2413 36.2661C85.982 36.5979 86.6117 35.9343 86.7969 35.7684C86.908 35.6688 86.945 35.6356 86.8339 35.7352C86.6857 35.8679 86.908 35.702 86.908 35.6688C87.0191 35.6025 87.1302 35.5361 87.2413 35.4365C87.3154 35.3702 87.3154 35.3702 87.2783 35.4034H87.3894C87.5746 35.3038 87.7228 35.2043 87.8339 35.0716C87.908 34.972 87.908 34.972 87.8709 35.0384C87.7969 35.1379 87.982 34.972 88.0561 34.9388C88.0931 34.9388 88.1302 34.9057 88.0931 34.9057C88.7598 34.5739 89.4265 34.2421 90.1302 33.9434C90.6117 33.7443 90.6117 33.7443 90.1672 33.9102C89.5006 34.1757 90.2413 33.8771 90.2413 33.8771C90.2783 33.8771 90.3154 33.8771 90.3154 33.8439C90.4265 33.8439 90.5376 33.7775 90.6117 33.7443C90.6487 33.7443 90.6857 33.7443 90.6857 33.7112C90.8339 33.678 90.982 33.6448 91.1302 33.5453C91.2043 33.5453 91.2413 33.5453 91.2783 33.5121C91.4265 33.5121 91.5376 33.4457 91.6487 33.4125C91.7228 33.4125 91.7598 33.4125 91.7228 33.3794C91.6857 33.3794 91.8339 33.3794 91.8709 33.3462C91.8709 33.3462 91.908 33.313 91.945 33.313C91.982 33.313 92.0561 33.2798 92.0931 33.2798C92.1302 33.2798 92.1672 33.2798 92.1672 33.2466C92.2043 33.2466 92.2783 33.2466 92.3154 33.2135C92.3524 33.2135 92.3894 33.2135 92.3894 33.1803C92.4265 33.1803 92.5006 33.1803 92.5376 33.1471C92.6117 33.1471 92.6487 33.1471 92.6857 33.1139C92.7228 33.1139 92.7969 33.0807 92.8339 33.0807C92.8709 33.0807 92.908 33.0807 92.908 33.0476C92.982 33.0476 93.0561 33.0476 93.1302 33.0144C93.1672 33.0144 93.2043 33.0144 93.2043 32.9812C93.2783 32.9812 93.3524 32.9812 93.4265 32.948C93.4635 32.948 93.5006 32.948 93.5006 32.9148C93.6857 32.9148 93.908 32.8485 94.0931 32.8153C94.1302 32.8153 94.1672 32.8153 94.1672 32.7821C94.2413 32.7821 94.3154 32.7489 94.3894 32.7489C94.4635 32.7489 94.5006 32.7489 94.5376 32.7158C94.7598 32.7158 94.982 32.6494 95.2043 32.6162C95.2413 32.6494 95.3154 32.6494 95.2783 32.7158C95.2413 32.7158 95.2043 32.7158 95.2043 32.7489C95.1672 32.7489 95.0931 32.8153 95.0191 32.8817L94.945 32.948C94.945 32.948 94.8709 33.0144 94.7228 33.1139L94.5376 33.2798C94.0561 33.8439 93.6487 34.5075 93.3524 35.2706C93.3524 35.337 93.3154 35.4034 93.2783 35.4697C93.2413 35.4697 93.2043 35.5029 93.2413 35.5361C92.945 36.3988 92.6857 37.2615 92.4635 38.1242C92.4635 38.1905 92.4265 38.2569 92.4265 38.3232C92.3894 38.3564 92.3894 38.3896 92.3894 38.456C92.3524 38.4892 92.3524 38.5555 92.3524 38.5887C92.3154 38.6551 92.2783 38.7214 92.3154 38.7878C92.2783 38.821 92.2783 38.8873 92.2783 38.9205C92.2413 38.9869 92.2043 39.0532 92.2413 39.1196C92.2043 39.1528 92.2043 39.2191 92.2043 39.2523C92.1672 39.3187 92.1302 39.385 92.1672 39.4514C92.0931 39.6505 92.0191 39.8495 92.0561 40.0486C92.0191 40.115 91.982 40.1814 92.0191 40.2477C91.945 40.4136 91.908 40.6127 91.945 40.8118C91.8709 40.9113 91.8709 41.0109 91.8709 41.1104C91.7969 41.2763 91.7598 41.4754 91.7968 41.6745C91.6857 41.774 91.7228 41.8736 91.7228 41.9731C91.6487 42.2385 91.6117 42.5372 91.5746 42.8026C91.5376 43.2008 91.5006 43.5989 91.4265 44.0303C91.4265 44.0303 91.4265 44.1298 91.4265 44.1962Z" fill="#00796B"/>
<path d="M82.2038 8.16228C82.2038 8.16228 82.2408 8.26182 82.2408 8.32818C82.2038 8.32818 82.2408 8.32818 82.2779 8.39454C82.6112 9.38995 82.5742 10.4185 82.1668 11.3808C81.8705 12.0776 81.4631 12.708 80.7594 13.2057C79.1297 14.4002 76.9816 14.1016 75.8705 12.5089C74.5742 10.684 75.0927 7.93001 77.0186 6.60279C77.6112 6.17145 78.3149 5.93918 79.0557 5.97237C80.2408 5.97237 81.1297 6.50325 81.7594 7.39912C81.9445 7.63139 82.0557 7.89683 82.1668 8.16228H82.2038Z" fill="#363739"/>
<path d="M104.278 22.2308C103.241 22.9939 102.018 23.3589 100.685 23.0934C99.4998 22.8612 98.759 22.1644 98.4627 21.1358C98.4257 21.0031 98.4627 20.8704 98.4627 20.7708C98.4257 20.2067 98.4627 19.6095 98.759 19.1118C99.0553 18.6141 99.4257 18.1496 99.9072 17.7514C100.5 17.2205 101.203 16.8887 101.981 16.6896C102.389 16.5901 102.833 16.5569 103.278 16.5901C103.907 16.6233 104.648 16.8887 105.092 17.2537C105.833 17.8841 106.129 18.6804 106.018 19.5431C105.87 20.6049 105.278 21.5008 104.352 22.1644C104.315 22.1644 104.278 22.1644 104.278 22.2308Z" fill="#363739"/>
<path d="M79.6853 42.7031C79.6853 42.7031 79.6483 42.7695 79.6113 42.869L79.5001 43.2008C79.5001 43.2008 79.4631 43.3667 79.4261 43.4663C79.4261 43.5658 79.389 43.599 79.315 43.6322H79.0927C79.0927 43.6322 78.9076 43.599 78.8705 43.5658C78.8335 43.5658 78.7594 43.5326 78.7224 43.4995C78.5001 43.4331 78.2779 43.3667 78.0557 43.3004C78.0187 43.3004 77.9446 43.3004 77.9076 43.2672C77.7224 43.2008 77.5001 43.1013 77.315 43.0349C77.2779 43.0349 76.9816 42.9354 76.9446 42.9022C76.8335 42.869 76.6853 42.8359 76.5742 42.7695C76.7964 42.5372 77.0187 42.2718 77.2409 42.0063C77.352 41.8736 77.4261 41.7741 77.5372 41.6414L77.9076 41.21C77.9076 41.21 78.0927 40.9777 78.2039 40.8782V40.8118C78.2039 40.8118 78.389 40.6128 78.9076 40.0819V40.0155C78.9076 40.0155 78.9446 39.9823 78.9816 39.9492C79.0927 39.916 79.1668 39.8164 79.2038 39.7501C79.2409 39.7501 79.2409 39.7169 79.2409 39.6837C79.2409 39.6505 79.2779 39.6505 79.2779 39.6173C79.315 39.5842 79.315 39.551 79.352 39.551C79.6483 39.3187 79.8705 39.0533 80.0927 38.7878C80.1298 38.7547 80.1298 38.7215 80.1298 38.6883C80.2038 38.6219 80.352 38.5888 80.389 38.456C80.4261 38.456 80.4261 38.4229 80.4261 38.3897C80.4261 38.3565 80.4631 38.3565 80.4631 38.3233C80.5001 38.2901 80.5001 38.257 80.5372 38.257C80.5742 38.2238 80.6113 38.2238 80.6113 38.1906C80.8335 37.9251 81.0927 37.7261 81.2779 37.4606C81.389 37.2947 81.4261 37.2615 81.352 37.3943C81.2409 37.5933 81.5742 37.1288 81.7224 36.9961C81.5372 37.5602 81.352 38.1242 81.1668 38.6883C81.0927 38.8874 81.0187 39.1196 80.9446 39.3187C80.9446 39.3851 80.9076 39.4514 80.8705 39.5178C80.7964 39.6837 80.7594 39.8496 80.6853 40.0155C80.6483 40.1482 80.5742 40.3141 80.5372 40.4469C80.5001 40.5796 80.4261 40.7123 80.389 40.845C80.389 40.9114 80.352 40.9777 80.315 41.0441C80.315 41.0441 80.1298 41.575 79.8335 42.2386C79.8335 42.2386 79.7594 42.3713 79.7224 42.504C79.7224 42.504 79.6483 42.6368 79.6483 42.67L79.6853 42.7031Z" fill="#00796B"/>
<path d="M83.6478 44.0305C83.6478 44.0305 83.4256 43.9642 83.2404 43.931H83.1663C83.1663 43.931 83.0552 43.931 83.0182 43.8978C82.9441 43.8978 82.87 43.8646 82.833 43.7983V43.6324C83.1293 42.836 83.3886 42.0065 83.6478 41.177C83.9071 40.3475 84.1663 39.5512 84.4256 38.7217C84.4997 38.4894 84.5367 38.224 84.6849 37.9917C84.6849 38.224 84.7589 38.3899 84.7589 38.5226C84.796 38.9208 84.796 39.153 84.87 39.6175V39.8498C84.87 40.1816 84.9441 40.4471 84.9441 40.613C85.0552 41.5088 85.2775 42.6038 85.2775 44.2296V44.4287H85.2034C85.2034 44.4287 84.9441 44.3623 84.7589 44.3292C84.6478 44.3292 84.6108 44.296 84.5367 44.2628C84.2034 44.1633 84.0182 44.1633 83.6108 44.0637H83.6478V44.0305Z" fill="#00796B"/>
<path d="M103.648 24.9849C103.648 24.9849 103.5 25.0512 103.426 25.0512C102.352 25.1839 101.278 25.2503 100.166 25.2171C100.055 25.2171 99.9812 25.2171 99.8701 25.1839H101.278C101.944 25.1839 102.611 25.1176 103.278 25.018C103.426 24.9517 103.537 24.9517 103.648 25.018V24.9849Z" fill="#00796B"/>
<path d="M75.3154 42.703C75.3154 42.703 75.6117 42.5703 75.7599 42.5039C75.6488 42.8025 75.5747 42.8357 75.3154 42.703Z" fill="#00796B"/>
<path d="M104.722 24.8525C104.722 24.8525 104.315 24.9525 104.13 24.9525C104.315 24.8192 104.537 24.8192 104.722 24.8525Z" fill="#00796B"/>
<path d="M91.8701 41.011C91.8701 41.011 91.8701 40.7788 91.9442 40.7124C91.9812 40.8119 92.0553 40.9447 91.8701 41.011Z" fill="#00796B"/>
<path d="M62.1663 5.20947C62.1663 5.20947 62.1663 5.37537 62.1663 5.47492C62.0552 5.40856 62.0552 5.30901 62.1663 5.20947Z" fill="#00796B"/>
<path d="M91.7589 41.8738C91.7589 41.8738 91.7218 41.6416 91.8329 41.5752C91.8329 41.6747 91.907 41.7743 91.7589 41.8738Z" fill="#00796B"/>
<path d="M75.9443 42.3382C75.9443 42.3382 76.0184 42.1391 76.1295 42.0728C76.1295 42.2055 76.0925 42.305 75.9443 42.3382Z" fill="#00796B"/>
<path d="M91.4263 44.1966C91.4263 44.1966 91.3892 44.0307 91.4633 43.9312C91.5744 44.0307 91.5744 44.1302 91.4263 44.1966Z" fill="#00796B"/>
<path d="M92.0186 40.1492C92.0186 40.1492 92.0186 40.0159 92.0556 39.9492C92.1667 40.0159 92.1667 40.0825 92.0186 40.1492Z" fill="#00796B"/>
<path d="M92.2041 39.3528C92.2041 39.3528 92.2041 39.2195 92.2411 39.1528C92.3152 39.2528 92.3152 39.3195 92.2041 39.3528Z" fill="#00796B"/>
<path d="M92.2783 39.0213C92.2783 39.0213 92.2783 38.8879 92.3154 38.8213C92.3894 38.9213 92.3894 38.9879 92.2783 39.0213Z" fill="#00796B"/>
<path d="M92.3516 38.6892C92.3516 38.6892 92.3516 38.5559 92.3886 38.4893C92.4627 38.5892 92.4627 38.6559 92.3516 38.6892Z" fill="#00796B"/>
<path d="M98.722 25.0847C98.722 25.0847 98.4998 25.0847 98.3887 25.018C98.4998 25.018 98.6109 24.9847 98.722 25.0847Z" fill="#00796B"/>
<path d="M61.6113 9.0591C61.6113 9.0591 61.6113 8.95911 61.6113 8.92578C61.7595 8.99244 61.6854 9.02577 61.6113 9.0591Z" fill="#00796B"/>
<path d="M84.9443 19.544C84.9443 19.544 84.9443 19.444 84.9814 19.4106C85.0555 19.444 85.0184 19.5106 84.9443 19.544Z" fill="#00796B"/>
<path d="M92.4258 38.3574C92.4258 38.3574 92.4258 38.2574 92.4628 38.2241C92.5369 38.2908 92.4628 38.3241 92.4258 38.3574Z" fill="#00796B"/>
<path d="M85.2409 37.6929C85.2409 37.6929 85.278 37.7595 85.278 37.8262C85.1668 37.7929 85.1298 37.7595 85.2409 37.6929Z" fill="#00796B"/>
<path d="M93.4632 15.1636C93.4632 15.1636 93.4632 15.2636 93.4261 15.2969C93.352 15.2302 93.3891 15.1969 93.4632 15.1636Z" fill="#00796B"/>
<path d="M93.4264 15.4951C93.4264 15.4951 93.4264 15.5951 93.3894 15.6284C93.2782 15.5618 93.3153 15.4951 93.4264 15.4951Z" fill="#00796B"/>
<path d="M74.6484 42.4712C74.6484 42.4712 74.8336 42.4712 74.8707 42.5364C74.7966 42.5364 74.6855 42.5364 74.6484 42.4712Z" fill="#00796B"/>
<path d="M98.2037 24.9842C98.2037 24.9842 98.0926 24.9842 98.0186 24.9517C98.0926 24.9517 98.1297 24.9842 98.2037 24.9842Z" fill="#00796B"/>
<path d="M70.6484 40.9448C70.6484 40.9448 70.7966 40.9774 70.8336 41.01C70.7595 41.01 70.6855 41.01 70.6484 40.9448Z" fill="#00796B"/>
<path d="M72.0557 41.4756C72.0557 41.4756 72.2038 41.5082 72.2408 41.5408C72.1668 41.5408 72.0927 41.5408 72.0557 41.4756Z" fill="#00796B"/>
<path d="M72.4258 41.6084C72.4258 41.6084 72.5369 41.6084 72.5739 41.6736C72.4999 41.6736 72.4628 41.6736 72.4258 41.6084Z" fill="#00796B"/>
<path d="M72.6484 41.6748C72.6484 41.6748 72.7595 41.6748 72.7966 41.74C72.7225 41.74 72.6855 41.74 72.6484 41.6748Z" fill="#00796B"/>
<path d="M72.2783 41.542C72.2783 41.542 72.3894 41.542 72.4265 41.6072C72.3524 41.6072 72.3154 41.6072 72.2783 41.542Z" fill="#00796B"/>
<path d="M72.7969 41.7412C72.7969 41.7412 72.908 41.7412 72.945 41.8064C72.8709 41.8064 72.8339 41.8064 72.7969 41.7412Z" fill="#00796B"/>
<path d="M71.9072 41.4092C71.9072 41.4092 72.0183 41.4092 72.0554 41.4744C71.9813 41.4744 71.9443 41.4744 71.9072 41.4092Z" fill="#00796B"/>
<path d="M71.7598 41.3428C71.7598 41.3428 71.8709 41.3428 71.9079 41.4079C71.8338 41.4079 71.7968 41.408 71.7598 41.3428Z" fill="#00796B"/>
<path d="M79.0184 39.9492C79.0184 39.9492 78.9814 40.0159 78.9443 40.0492C78.9443 40.0159 78.9443 39.9825 79.0184 39.9492Z" fill="#00796B"/>
<path d="M73.167 41.8735C73.167 41.8735 73.2781 41.8735 73.3151 41.9387C73.2411 41.9387 73.204 41.9387 73.167 41.8735Z" fill="#00796B"/>
<path d="M71.3887 41.21C71.3887 41.21 71.4998 41.21 71.5368 41.2751C71.4627 41.2751 71.4257 41.2751 71.3887 41.21Z" fill="#00796B"/>
<path d="M71.2412 41.1768C71.2412 41.1768 71.3523 41.1768 71.3894 41.2419C71.3153 41.2093 71.2782 41.2093 71.2412 41.1768Z" fill="#00796B"/>
<path d="M71.0186 41.0771C71.0186 41.0771 71.1297 41.0771 71.1667 41.1423C71.0926 41.1423 71.0556 41.1423 71.0186 41.0771Z" fill="#00796B"/>
<path d="M73.3154 41.9399C73.3154 41.9399 73.4265 41.9399 73.4636 42.0051C73.3895 42.0051 73.3525 42.0051 73.3154 41.9399Z" fill="#00796B"/>
<path d="M73.6855 42.0728C73.6855 42.0728 73.7967 42.0728 73.8337 42.1379C73.7596 42.1379 73.7226 42.1379 73.6855 42.0728Z" fill="#00796B"/>
<path d="M73.833 42.1392C73.833 42.1392 73.9441 42.1392 73.9812 42.2043C73.9071 42.2043 73.87 42.2043 73.833 42.1392Z" fill="#00796B"/>
<path d="M74.2041 42.272C74.2041 42.272 74.3152 42.272 74.3522 42.3372C74.2782 42.3372 74.2411 42.3371 74.2041 42.272Z" fill="#00796B"/>
<path d="M94.611 32.583C94.611 32.583 94.4999 32.6156 94.4629 32.6156C94.4629 32.583 94.537 32.583 94.611 32.583Z" fill="#00796B"/>
<path d="M75.0928 42.6035C75.0928 42.6035 75.2039 42.6035 75.2409 42.6687C75.1668 42.6687 75.1298 42.6687 75.0928 42.6035Z" fill="#00796B"/>
<path d="M92.7224 32.9814C92.7224 32.9814 92.6483 33.0466 92.5742 33.014C92.6113 32.9814 92.6853 32.9814 92.7224 32.9814Z" fill="#00796B"/>
<path d="M91.3151 33.3794C91.3151 33.3794 91.2411 33.4446 91.167 33.412C91.204 33.3794 91.2781 33.3794 91.3151 33.3794Z" fill="#00796B"/>
<path d="M70.8701 41.0112C70.8701 41.0112 70.9812 41.0112 71.0183 41.0764C70.9442 41.0764 70.9072 41.0764 70.8701 41.0112Z" fill="#00796B"/>
<path d="M70.5 40.8784C70.5 40.8784 70.6111 40.8784 70.6481 40.9436C70.5741 40.9436 70.537 40.9436 70.5 40.8784Z" fill="#00796B"/>
<path d="M70.3516 40.812C70.3516 40.812 70.4627 40.812 70.4997 40.8772C70.4256 40.8772 70.3886 40.8772 70.3516 40.812Z" fill="#00796B"/>
<path d="M70.1299 40.7456C70.1299 40.7456 70.241 40.7456 70.278 40.8108C70.241 40.8108 70.1669 40.8108 70.1299 40.7456Z" fill="#00796B"/>
<path d="M80.1669 38.6885C80.1669 38.6885 80.1669 38.7551 80.1299 38.7885C80.1299 38.7551 80.1669 38.7218 80.1669 38.6885Z" fill="#00796B"/>
<path d="M69.9814 40.6792C69.9814 40.6792 70.0926 40.6792 70.1296 40.7444C70.0555 40.7444 70.0185 40.7444 69.9814 40.6792Z" fill="#00796B"/>
<path d="M69.833 40.6128L69.9812 40.678C69.9812 40.678 69.87 40.678 69.833 40.6128Z" fill="#00796B"/>
<path d="M72.7969 19.875H72.8331C72.8331 19.875 72.7969 19.9036 72.7969 19.875Z" fill="#00796B"/>
<path d="M72.7227 19.8086C72.7227 19.8086 72.7589 19.8404 72.7589 19.8723C72.7589 19.8404 72.7227 19.8404 72.7227 19.8086Z" fill="#00796B"/>
<path d="M72.6484 19.7422C72.6484 19.7422 72.7225 19.7748 72.7225 19.8074C72.6855 19.8074 72.6484 19.7422 72.6484 19.7422Z" fill="#00796B"/>
<path d="M72.5742 19.6758C72.5742 19.6758 72.6483 19.7084 72.6483 19.741C72.6113 19.741 72.5742 19.6758 72.5742 19.6758Z" fill="#00796B"/>
<path d="M73.4629 20.5386C73.4629 20.5386 73.537 20.5712 73.537 20.6037C73.4999 20.5712 73.4999 20.5386 73.4629 20.5386Z" fill="#00796B"/>
<path d="M72.5 19.6099C72.5 19.6099 72.5741 19.6425 72.5741 19.675C72.537 19.6425 72.537 19.6099 72.5 19.6099Z" fill="#00796B"/>
<path d="M73.5371 20.605C73.5371 20.605 73.6112 20.6376 73.6112 20.6702C73.5741 20.6702 73.5741 20.605 73.5371 20.605Z" fill="#00796B"/>
<path d="M72.4258 19.5435C72.4258 19.5435 72.4999 19.576 72.4999 19.6086C72.4628 19.6086 72.4628 19.5435 72.4258 19.5435Z" fill="#00796B"/>
<path d="M73.6113 20.6714C73.6113 20.6714 73.6854 20.704 73.6854 20.7366C73.6484 20.7366 73.6113 20.6714 73.6113 20.6714Z" fill="#00796B"/>
<path d="M72.3516 19.4771C72.3516 19.4771 72.4256 19.5096 72.4256 19.5422C72.3886 19.5422 72.3886 19.4771 72.3516 19.4771Z" fill="#00796B"/>
<path d="M73.6855 20.7378C73.6855 20.7378 73.7217 20.7378 73.7217 20.7696C73.7217 20.7696 73.6855 20.7696 73.6855 20.7378Z" fill="#00796B"/>
<path d="M72.2783 19.4106C72.2783 19.4106 72.3524 19.4432 72.3524 19.4758C72.3154 19.4432 72.3154 19.4106 72.2783 19.4106Z" fill="#00796B"/>
<path d="M72.2041 19.3442C72.2041 19.3442 72.2782 19.3768 72.2782 19.4094C72.2411 19.4094 72.2411 19.3442 72.2041 19.3442Z" fill="#00796B"/>
<path d="M74.0557 21.1025C74.0557 21.1025 74.1297 21.1351 74.1297 21.1677C74.1297 21.1677 74.105 21.146 74.0557 21.1025Z" fill="#00796B"/>
<path d="M74.1299 21.2021C74.1299 21.2021 74.204 21.2347 74.204 21.2673C74.1669 21.2673 74.1669 21.2021 74.1299 21.2021Z" fill="#00796B"/>
<path d="M72.1299 19.2778C72.1299 19.2778 72.204 19.3104 72.204 19.343C72.1669 19.343 72.1669 19.2778 72.1299 19.2778Z" fill="#00796B"/>
<path d="M72.0557 19.2114C72.0557 19.2114 72.1297 19.244 72.1297 19.2766C72.0927 19.244 72.0927 19.2114 72.0557 19.2114Z" fill="#00796B"/>
<path d="M71.9814 19.145C71.9814 19.145 72.0555 19.1776 72.0555 19.2102C72.0185 19.2102 72.0185 19.145 71.9814 19.145Z" fill="#00796B"/>
<path d="M71.9072 19.0786C71.9072 19.0786 71.9813 19.1112 71.9813 19.1438C71.9443 19.1438 71.9443 19.0786 71.9072 19.0786Z" fill="#00796B"/>
<path d="M71.833 19.0127C71.833 19.0127 71.9071 19.0453 71.9071 19.0779C71.87 19.0779 71.87 19.0127 71.833 19.0127Z" fill="#00796B"/>
<path d="M74.5742 21.667C74.5742 21.667 74.6483 21.6996 74.6483 21.7322C74.6113 21.7322 74.6113 21.667 74.5742 21.667Z" fill="#00796B"/>
<path d="M74.6484 21.7334C74.6484 21.7334 74.6846 21.7652 74.6846 21.7971V21.7334H74.6484Z" fill="#00796B"/>
<path d="M71.7598 18.9458C71.7598 18.9458 71.8338 18.9784 71.8338 19.011C71.7968 19.011 71.7968 18.9458 71.7598 18.9458Z" fill="#00796B"/>
<path d="M71.6855 18.8799C71.6855 18.8799 71.7596 18.9125 71.7596 18.9451C71.7226 18.9125 71.7226 18.8799 71.6855 18.8799Z" fill="#00796B"/>
<path d="M71.6113 18.8135C71.6113 18.8135 71.6854 18.8461 71.6854 18.8787C71.6484 18.8787 71.6484 18.8135 71.6113 18.8135Z" fill="#00796B"/>
<path d="M104.277 22.2302C104.277 22.2302 104.277 22.165 104.351 22.1976C104.314 22.1976 104.314 22.2302 104.277 22.2302Z" fill="#00796B"/>
<path d="M71.5371 18.7471C71.5371 18.7471 71.6112 18.7797 71.6112 18.8122C71.5741 18.8122 71.5741 18.7471 71.5371 18.7471Z" fill="#00796B"/>
<path d="M75.2412 22.3638C75.2412 22.3638 75.3153 22.3964 75.3153 22.4289C75.3153 22.4289 75.2906 22.4072 75.2412 22.3638Z" fill="#00796B"/>
<path d="M71.4629 18.6807C71.4629 18.6807 71.537 18.7133 71.537 18.7458C71.4999 18.7133 71.4999 18.6807 71.4629 18.6807Z" fill="#00796B"/>
<path d="M71.3887 18.6143C71.3887 18.6143 71.4627 18.6468 71.4627 18.6794C71.4257 18.6794 71.4257 18.6143 71.3887 18.6143Z" fill="#00796B"/>
<path d="M71.3145 18.5479C71.3145 18.5479 71.3885 18.5804 71.3885 18.613C71.3515 18.613 71.3145 18.5479 71.3145 18.5479Z" fill="#00796B"/>
<path d="M75.5371 22.6953C75.5371 22.6953 75.6112 22.7279 75.6112 22.7605C75.6112 22.7605 75.5865 22.7388 75.5371 22.6953Z" fill="#00796B"/>
<path d="M71.2412 18.4814C71.2412 18.4814 71.3153 18.514 71.3153 18.5466C71.2782 18.514 71.2412 18.514 71.2412 18.4814Z" fill="#00796B"/>
<path d="M71.167 18.415L71.2411 18.4802C71.2411 18.4802 71.167 18.4802 71.167 18.415Z" fill="#00796B"/>
<path d="M71.0928 18.3486L71.1668 18.4138C71.1668 18.4138 71.0928 18.4138 71.0928 18.3486Z" fill="#00796B"/>
<path d="M71.0186 18.2822H71.0548C71.0548 18.2822 71.0186 18.3108 71.0186 18.2822Z" fill="#00796B"/>
<path d="M75.834 23.0273C75.834 23.0273 75.9081 23.0599 75.9081 23.0925C75.871 23.0925 75.871 23.0599 75.834 23.0273Z" fill="#00796B"/>
<path d="M70.9443 18.2158C70.9443 18.2158 70.9805 18.2158 70.9805 18.2477C70.9805 18.2477 70.9443 18.2477 70.9443 18.2158Z" fill="#00796B"/>
<path d="M70.8701 18.1826H70.9063V18.2145L70.8701 18.1826Z" fill="#00796B"/>
<path d="M70.3516 17.7515C70.3516 17.7515 70.4256 17.7841 70.4256 17.8166C70.3886 17.7841 70.3886 17.7515 70.3516 17.7515Z" fill="#00796B"/>
<path d="M70.2783 17.6851C70.2783 17.6851 70.3524 17.7176 70.3524 17.7502C70.3154 17.7502 70.3154 17.6851 70.2783 17.6851Z" fill="#00796B"/>
<path d="M70.2041 17.6187C70.2041 17.6187 70.2782 17.6512 70.2782 17.6838C70.2411 17.6838 70.2411 17.6187 70.2041 17.6187Z" fill="#00796B"/>
<path d="M70.1299 17.5522C70.1299 17.5522 70.204 17.5848 70.204 17.6174C70.1669 17.5848 70.1299 17.5848 70.1299 17.5522Z" fill="#00796B"/>
<path d="M85.6855 17.5531C85.6855 17.5531 85.6855 17.4865 85.7596 17.4531C85.7596 17.4531 85.7226 17.5198 85.6855 17.5531Z" fill="#00796B"/>
<path d="M70.0557 17.4863C70.0557 17.4863 70.0927 17.4863 70.1297 17.5189C70.0927 17.5189 70.0557 17.5189 70.0557 17.4863Z" fill="#00796B"/>
<path d="M76.5742 23.9233C76.5742 23.9233 76.6104 23.9552 76.6104 23.987V23.9233H76.5742Z" fill="#00796B"/>
<path d="M69.7598 17.2539C69.7598 17.2539 69.8338 17.2865 69.8338 17.3191C69.7968 17.3191 69.7598 17.3191 69.7598 17.2539Z" fill="#00796B"/>
<path d="M69.3887 16.9551C69.3887 16.9551 69.4627 16.9877 69.4627 17.0203C69.4257 17.0203 69.4257 16.9551 69.3887 16.9551Z" fill="#00796B"/>
<path d="M69.3145 16.8887C69.3145 16.8887 69.3885 16.9213 69.3885 16.9538C69.3515 16.9538 69.3515 16.8887 69.3145 16.8887Z" fill="#00796B"/>
<path d="M69.2412 16.8223C69.2412 16.8223 69.3153 16.8549 69.3153 16.8874C69.2782 16.8549 69.2782 16.8223 69.2412 16.8223Z" fill="#00796B"/>
<path d="M69.167 16.7563C69.167 16.7563 69.2411 16.7889 69.2411 16.8215C69.204 16.8215 69.204 16.7563 69.167 16.7563Z" fill="#00796B"/>
<path d="M69.0928 16.6899C69.0928 16.6899 69.1668 16.7225 69.1668 16.7551C69.1298 16.7551 69.1298 16.6899 69.0928 16.6899Z" fill="#00796B"/>
<path d="M69.0186 16.6235C69.0186 16.6235 69.0926 16.6561 69.0926 16.6887C69.0556 16.6561 69.0556 16.6235 69.0186 16.6235Z" fill="#00796B"/>
<path d="M68.9443 16.5571C68.9443 16.5571 69.0184 16.5897 69.0184 16.6223C69.0184 16.6223 69.0184 16.6223 68.9443 16.5571Z" fill="#00796B"/>
<path d="M68.8701 16.4907C68.8701 16.4907 68.9442 16.5233 68.9442 16.5559C68.9072 16.5233 68.8701 16.5233 68.8701 16.4907Z" fill="#00796B"/>
<path d="M68.7959 16.4243C68.7959 16.4243 68.87 16.4569 68.87 16.4895C68.8329 16.4895 68.8329 16.4243 68.7959 16.4243Z" fill="#00796B"/>
<path d="M68.7227 16.3579C68.7227 16.3579 68.7967 16.3905 68.7967 16.4231C68.7597 16.4231 68.7597 16.3579 68.7227 16.3579Z" fill="#00796B"/>
<path d="M68.6484 16.2915C68.6484 16.2915 68.7225 16.3241 68.7225 16.3567C68.6855 16.3241 68.6855 16.2915 68.6484 16.2915Z" fill="#00796B"/>
<path d="M86.5742 16.2903C86.5742 16.2903 86.6113 16.2251 86.6483 16.2251C86.6483 16.2251 86.6113 16.2251 86.5742 16.2903Z" fill="#00796B"/>
<path d="M68.5742 16.2251C68.5742 16.2251 68.6483 16.2577 68.6483 16.2903C68.6113 16.2903 68.6113 16.2251 68.5742 16.2251Z" fill="#00796B"/>
<path d="M80.871 16.1587C80.871 16.1587 80.8339 16.1913 80.7969 16.1913C80.7969 16.1587 80.8339 16.1587 80.871 16.1587Z" fill="#00796B"/>
<path d="M91.7596 24.8188C91.7596 24.8188 91.7226 24.8855 91.6855 24.9188C91.6855 24.9188 91.7226 24.8522 91.7596 24.8188Z" fill="#00796B"/>
<path d="M68.5 16.1587C68.5 16.1587 68.5741 16.1913 68.5741 16.2239C68.537 16.2239 68.537 16.1587 68.5 16.1587Z" fill="#00796B"/>
<path d="M91.6475 24.9517C91.6475 24.9517 91.6475 24.9835 91.6113 24.9835C91.6113 24.9835 91.6475 24.9835 91.6475 24.9517Z" fill="#00796B"/>
<path d="M91.537 25.0845C91.537 25.0845 91.4999 25.1171 91.4629 25.1496C91.4629 25.1496 91.4999 25.1496 91.537 25.0845Z" fill="#00796B"/>
<path d="M67.9072 15.5615L67.9434 15.5934L67.9072 15.5615Z" fill="#00796B"/>
<path d="M91.4613 25.1509C91.4613 25.1509 91.4613 25.1827 91.4251 25.1827C91.389 25.1827 91.4252 25.1827 91.4613 25.1509Z" fill="#00796B"/>
<path d="M67.834 15.4951H67.8702C67.8702 15.4951 67.834 15.5237 67.834 15.4951Z" fill="#00796B"/>
<path d="M87.2041 15.4939C87.2041 15.4939 87.2411 15.4287 87.2782 15.4287C87.2411 15.4287 87.2041 15.4613 87.2041 15.4939Z" fill="#00796B"/>
<path d="M75.7589 25.5807L75.7227 25.5488L75.7589 25.5807V25.5488V25.5807Z" fill="#00796B"/>
<path d="M90.7967 25.6152C90.7967 25.6152 90.7597 25.6478 90.7227 25.6478C90.7227 25.6478 90.7227 25.6478 90.7967 25.6152Z" fill="#00796B"/>
<path d="M67.7598 15.4287L67.8338 15.4939C67.8338 15.4939 67.7598 15.4939 67.7598 15.4287Z" fill="#00796B"/>
<path d="M67.6855 15.3628C67.6855 15.3628 67.7596 15.3954 67.7596 15.428L67.6855 15.3628Z" fill="#00796B"/>
<path d="M90.6846 25.6816V25.7135H90.6484L90.6846 25.6816Z" fill="#00796B"/>
<path d="M67.6113 15.2964C67.6113 15.2964 67.6854 15.329 67.6854 15.3616C67.6484 15.3616 67.6484 15.2964 67.6113 15.2964Z" fill="#00796B"/>
<path d="M82.1661 15.23C82.1661 15.23 82.1661 15.2618 82.1299 15.2618C82.1299 15.23 82.1661 15.23 82.1661 15.23Z" fill="#00796B"/>
<path d="M82.2782 15.1636C82.2782 15.1636 82.2411 15.2288 82.2041 15.2288C82.2411 15.1962 82.2411 15.1636 82.2782 15.1636Z" fill="#00796B"/>
<path d="M78.5742 26.5776C78.5742 26.5776 78.6104 26.6095 78.6104 26.6413C78.5742 26.6095 78.5742 26.5776 78.5742 26.5776Z" fill="#00796B"/>
<path d="M88.9063 27.3408C88.9063 27.3408 88.9063 27.3727 88.8701 27.3727C88.8701 27.3727 88.9063 27.3727 88.9063 27.3408Z" fill="#00796B"/>
<path d="M67.2412 14.8979C67.2412 14.8979 67.3136 14.9298 67.2774 14.9616V14.8979H67.2412Z" fill="#00796B"/>
<path d="M82.7225 14.8315C82.7225 14.8315 82.6855 14.8641 82.6484 14.8641C82.6484 14.8641 82.6484 14.8641 82.7225 14.8315Z" fill="#00796B"/>
<path d="M67.167 14.8315C67.167 14.8315 67.2411 14.8641 67.2411 14.8967C67.204 14.8641 67.204 14.8315 67.167 14.8315Z" fill="#00796B"/>
<path d="M88.5362 27.7388C88.5362 27.7388 88.5362 27.7706 88.5 27.7706C88.5 27.7706 88.5362 27.7706 88.5362 27.7388Z" fill="#00796B"/>
<path d="M66.8701 14.5C66.8701 14.5 66.9442 14.5326 66.9442 14.5652C66.9072 14.5652 66.9072 14.5 66.8701 14.5Z" fill="#00796B"/>
<path d="M83.2782 14.334C83.2782 14.334 83.2411 14.3632 83.2041 14.334H83.2782Z" fill="#00796B"/>
<path d="M79.4629 27.938C79.4629 27.938 79.537 27.9713 79.537 28.038C79.4999 28.038 79.4629 27.9713 79.4629 27.938Z" fill="#00796B"/>
<path d="M88.2403 28.0708H88.2041L88.2403 28.1026V28.0708Z" fill="#00796B"/>
<path d="M83.3895 14.3008C83.3895 14.3008 83.3525 14.3334 83.3154 14.366C83.3154 14.366 83.3525 14.3008 83.3895 14.3008Z" fill="#00796B"/>
<path d="M66.7227 14.3008L66.7589 14.3326L66.7227 14.3008Z" fill="#00796B"/>
<path d="M66.6484 14.2344C66.6484 14.2344 66.6846 14.2662 66.6846 14.2981C66.6846 14.2662 66.6484 14.2662 66.6484 14.2344Z" fill="#00796B"/>
<path d="M66.5742 14.168C66.5742 14.168 66.6483 14.2006 66.6483 14.2331C66.6113 14.2331 66.6113 14.168 66.5742 14.168Z" fill="#00796B"/>
<path d="M66.4258 13.9692C66.4258 13.9692 66.462 13.9692 66.462 14.0011C66.462 14.0011 66.462 14.0011 66.4258 13.9692Z" fill="#00796B"/>
<path d="M66.2773 13.8032C66.2773 13.8032 66.3514 13.8358 66.3514 13.8684C66.3144 13.8684 66.3144 13.8358 66.2773 13.8032Z" fill="#00796B"/>
<path d="M66.1299 13.6372C66.1299 13.6372 66.2023 13.6691 66.1661 13.7009V13.6372H66.1299Z" fill="#00796B"/>
<path d="M65.9072 13.3716C65.9072 13.3716 65.9813 13.4042 65.9813 13.4368C65.9443 13.4368 65.9443 13.3716 65.9072 13.3716Z" fill="#00796B"/>
<path d="M65.6855 13.0732C65.6855 13.0732 65.7596 13.0732 65.7596 13.1384C65.7226 13.1384 65.6855 13.1384 65.6855 13.0732Z" fill="#00796B"/>
<path d="M86.9805 29.6636C86.9805 29.6636 86.9805 29.6954 86.9443 29.7273C86.9443 29.7273 86.9443 29.7273 86.9805 29.6636Z" fill="#00796B"/>
<path d="M65.3154 12.5757C65.3154 12.5757 65.3516 12.5757 65.3516 12.6394L65.3154 12.5757Z" fill="#00796B"/>
<path d="M65.167 12.3765C65.167 12.3765 65.2032 12.3765 65.2032 12.4402V12.3765H65.167Z" fill="#00796B"/>
<path d="M64.9443 12.0444C64.9443 12.0444 64.9805 12.0444 64.9805 12.1081L64.9443 12.0444Z" fill="#00796B"/>
<path d="M85.9434 11.9116C85.9434 11.9116 85.9072 11.9116 85.9072 11.9753V11.9116H85.9434Z" fill="#00796B"/>
<path d="M81.2412 31.0898C81.2412 31.0898 81.3153 31.1565 81.2782 31.1898C81.2782 31.1565 81.2412 31.1565 81.2412 31.0898Z" fill="#00796B"/>
<path d="M72.8701 19.9414C72.8701 19.9414 72.9063 19.9414 72.9063 19.9733C72.9063 19.9733 72.8701 19.9733 72.8701 19.9414Z" fill="#00796B"/>
<path d="M63.9814 10.4849C63.9814 10.4849 64.0538 10.4849 64.0176 10.5486C64.0176 10.5486 64.0176 10.5486 63.9814 10.4849Z" fill="#00796B"/>
<path d="M63.833 10.1865L63.8692 10.2184H63.833V10.1865Z" fill="#00796B"/>
<path d="M85.5733 32.1187C85.5733 32.1187 85.5733 32.1505 85.5371 32.1823C85.5371 32.1823 85.5733 32.1823 85.5733 32.1187Z" fill="#00796B"/>
<path d="M63.5371 9.62256C63.5371 9.62256 63.5733 9.62256 63.5733 9.68625V9.62256H63.5371Z" fill="#00796B"/>
<path d="M88.0919 9.39014C88.0919 9.39014 88.0919 9.39014 88.0557 9.45383V9.39014H88.0919Z" fill="#00796B"/>
<path d="M94.2411 32.6494C94.2411 32.6494 94.204 32.682 94.167 32.682C94.167 32.682 94.204 32.682 94.2411 32.6494Z" fill="#00796B"/>
<path d="M93.5741 32.7822C93.5741 32.7822 93.537 32.8148 93.5 32.8148C93.5 32.8148 93.537 32.8148 93.5741 32.7822Z" fill="#00796B"/>
<path d="M93.2411 32.8486C93.2411 32.8486 93.204 32.8812 93.167 32.8812C93.204 32.8812 93.2411 32.8812 93.2411 32.8486Z" fill="#00796B"/>
<path d="M92.9813 32.915C92.9813 32.915 92.9443 32.9476 92.9072 32.9476C92.9072 32.9476 92.9443 32.9476 92.9813 32.915Z" fill="#00796B"/>
<path d="M92.4256 33.0479C92.4256 33.0479 92.3886 33.113 92.3516 33.0804C92.3516 33.0804 92.3516 33.0479 92.4256 33.0479Z" fill="#00796B"/>
<path d="M92.204 33.1143C92.204 33.1143 92.1669 33.1468 92.1299 33.1468C92.1669 33.1468 92.204 33.1468 92.204 33.1143Z" fill="#00796B"/>
<path d="M91.9813 33.1807C91.9813 33.1807 91.9443 33.2133 91.9072 33.2133C91.9072 33.2133 91.9072 33.2133 91.9813 33.1807Z" fill="#00796B"/>
<path d="M91.7596 33.2466C91.7596 33.2466 91.7226 33.2792 91.6855 33.2792C91.6855 33.2792 91.6855 33.2792 91.7596 33.2466Z" fill="#00796B"/>
<path d="M82.2768 8.35862C82.2768 8.35862 82.2044 8.35862 82.2406 8.29492L82.2768 8.35862Z" fill="#00796B"/>
<path d="M90.7225 33.5786C90.7225 33.5786 90.6855 33.6112 90.6484 33.6112C90.6484 33.6112 90.6484 33.6112 90.7225 33.5786Z" fill="#00796B"/>
<path d="M90.3524 33.7114C90.3524 33.7114 90.3154 33.744 90.2783 33.744C90.3154 33.744 90.3524 33.744 90.3524 33.7114Z" fill="#00796B"/>
<path d="M73.5733 34.375C73.5733 34.375 73.5733 34.4068 73.5371 34.4068H73.5733V34.375Z" fill="#00796B"/>
<path d="M83.5742 34.6379C83.5742 34.6379 83.5742 34.6061 83.6104 34.5742V34.6379H83.5742Z" fill="#00796B"/>
<path d="M87.8692 34.9058H87.833L87.8692 34.9376V34.9058Z" fill="#00796B"/>
<path d="M87.3885 35.2378C87.3885 35.2378 87.3515 35.2704 87.3145 35.2704C87.3145 35.2704 87.3145 35.2704 87.3885 35.2378Z" fill="#00796B"/>
<path d="M87.2774 35.3042C87.2774 35.3042 87.2774 35.336 87.2412 35.336H87.2774V35.3042Z" fill="#00796B"/>
<path d="M86.9442 35.5693C86.9442 35.5693 86.9072 35.6345 86.8701 35.6345C86.8701 35.6019 86.9072 35.6019 86.9442 35.5693Z" fill="#00796B"/>
<path d="M86.8695 35.6357C86.8695 35.6357 86.8695 35.6676 86.8334 35.6676C86.7972 35.6676 86.8334 35.6357 86.8695 35.6357Z" fill="#00796B"/>
<path d="M86.2403 36.1665C86.2403 36.1665 86.2403 36.1984 86.2041 36.1984C86.2041 36.1984 86.2403 36.1984 86.2403 36.1665Z" fill="#00796B"/>
<path d="M81.167 36.8293C81.167 36.8293 81.204 36.7642 81.2411 36.7642C81.2411 36.7642 81.2411 36.7642 81.167 36.8293Z" fill="#00796B"/>
<path d="M81.0928 36.8953C81.0928 36.8953 81.1298 36.8301 81.1668 36.8301C81.1668 36.8301 81.1668 36.8301 81.0928 36.8953Z" fill="#00796B"/>
<path d="M81.0186 36.9617C81.0186 36.9617 81.0556 36.8965 81.0926 36.8965C81.0926 36.9291 81.0556 36.9617 81.0186 36.9617Z" fill="#00796B"/>
<path d="M80.9072 37.0943H80.9434L80.9072 37.0625V37.0943Z" fill="#00796B"/>
<path d="M80.6484 37.3601C80.6484 37.3601 80.6855 37.2949 80.7225 37.2949C80.7225 37.2949 80.6855 37.3601 80.6484 37.3601Z" fill="#00796B"/>
<path d="M80.5742 37.4265C80.5742 37.4265 80.6113 37.3613 80.6483 37.3613C80.6483 37.3613 80.6483 37.3613 80.5742 37.4265Z" fill="#00796B"/>
<path d="M81.3885 37.4277L81.3145 37.4929C81.3145 37.4929 81.3515 37.4277 81.3885 37.4277Z" fill="#00796B"/>
<path d="M71.796 37.4941C71.796 37.4941 71.796 37.526 71.7598 37.526H71.796V37.4941Z" fill="#00796B"/>
<path d="M80.4258 37.5593C80.4258 37.5593 80.4628 37.4941 80.4999 37.4941C80.4999 37.4941 80.4999 37.4941 80.4258 37.5593Z" fill="#00796B"/>
<path d="M80.0557 37.9573C80.0557 37.9573 80.0927 37.8921 80.1297 37.8921C80.1297 37.8921 80.1297 37.8921 80.0557 37.9573Z" fill="#00796B"/>
<path d="M79.9814 38.0237C79.9814 38.0237 80.0185 37.9585 80.0555 37.9585C80.0555 37.9585 80.0555 37.9585 79.9814 38.0237Z" fill="#00796B"/>
<path d="M79.9443 38.0886C79.9443 38.0886 79.9805 38.0568 79.9805 38.0249C79.9805 38.0568 79.9443 38.0567 79.9443 38.0886Z" fill="#00796B"/>
<path d="M80.5741 38.29C80.5741 38.29 80.537 38.3552 80.5 38.3552C80.5 38.3226 80.537 38.29 80.5741 38.29Z" fill="#00796B"/>
<path d="M79.6113 38.4216C79.6113 38.4216 79.6484 38.3564 79.6854 38.3564C79.6854 38.3564 79.6854 38.3564 79.6113 38.4216Z" fill="#00796B"/>
<path d="M79.5371 38.488C79.5371 38.488 79.5741 38.4229 79.6112 38.4229C79.6112 38.4229 79.6112 38.4228 79.5371 38.488Z" fill="#00796B"/>
<path d="M80.462 38.4229C80.462 38.4229 80.462 38.4547 80.4258 38.4865C80.4258 38.4865 80.462 38.4865 80.462 38.4229Z" fill="#00796B"/>
<path d="M79.4629 38.5544C79.4629 38.5544 79.4999 38.4893 79.537 38.4893C79.537 38.4893 79.4999 38.4893 79.4629 38.5544Z" fill="#00796B"/>
<path d="M79.4258 38.6194C79.4258 38.6194 79.4258 38.5875 79.462 38.5557C79.462 38.5875 79.4258 38.6194 79.4258 38.6194Z" fill="#00796B"/>
<path d="M79.3516 38.6871C79.3516 38.6871 79.3516 38.6553 79.3878 38.6553H79.3516V38.6871Z" fill="#00796B"/>
<path d="M90.2403 5.93945C90.2403 5.93945 90.2403 5.93945 90.2041 6.00315C90.2041 6.00315 90.2403 6.00315 90.2403 5.93945Z" fill="#00796B"/>
<path d="M78.9814 39.0851H79.0176L78.9814 39.0532V39.0851Z" fill="#00796B"/>
<path d="M78.7227 39.3508C78.7227 39.3508 78.7597 39.2856 78.7967 39.2856C78.7967 39.2856 78.7967 39.2856 78.7227 39.3508Z" fill="#00796B"/>
<path d="M79.3885 39.5513C79.3885 39.5513 79.3515 39.6164 79.3145 39.6164C79.3145 39.6164 79.3515 39.5513 79.3885 39.5513Z" fill="#00796B"/>
<path d="M79.3153 39.6836L79.2412 39.7488C79.2412 39.7488 79.2412 39.7488 79.3153 39.6836Z" fill="#00796B"/>
<path d="M78.2783 39.8152C78.2783 39.8152 78.3154 39.75 78.3524 39.75C78.3524 39.75 78.3524 39.75 78.2783 39.8152Z" fill="#00796B"/>
<path d="M78.2412 39.8801C78.2412 39.8801 78.2412 39.8483 78.2774 39.8164C78.2774 39.8483 78.2412 39.8483 78.2412 39.8801Z" fill="#00796B"/>
<path d="M78.0928 40.0143V39.9824H78.129L78.0928 40.0143Z" fill="#00796B"/>
<path d="M77.9814 40.1472C77.9814 40.1472 78.0185 40.082 78.0555 40.082C78.0555 40.082 78.0308 40.1038 77.9814 40.1472Z" fill="#00796B"/>
<path d="M77.9072 40.2136C77.9072 40.2136 77.9443 40.1484 77.9813 40.1484C77.9813 40.1484 77.9813 40.1484 77.9072 40.2136Z" fill="#00796B"/>
<path d="M77.8701 40.2785C77.8701 40.2785 77.9063 40.2467 77.9063 40.2148C77.9063 40.2467 77.8701 40.2467 77.8701 40.2785Z" fill="#00796B"/>
<path d="M77.7227 40.4127V40.3809H77.7588L77.7227 40.4127Z" fill="#00796B"/>
<path d="M77.4258 40.7437H77.462C77.462 40.7437 77.4258 40.7151 77.4258 40.7437Z" fill="#00796B"/>
<path d="M78.0919 40.9448C78.0919 40.9448 78.0557 40.9767 78.0557 41.0085C78.0557 41.0085 78.0919 41.0085 78.0919 40.9448Z" fill="#00796B"/>
<path d="M76.6113 41.607C76.6113 41.607 76.6113 41.5752 76.6475 41.5752H76.6113V41.607Z" fill="#00796B"/>
<path d="M14.04 79C13.9067 79 13.7933 78.9533 13.7 78.86C13.6067 78.7667 13.56 78.6533 13.56 78.52V65.5C13.56 65.3533 13.6067 65.2333 13.7 65.14C13.7933 65.0467 13.9067 65 14.04 65H19.4C20.44 65 21.3467 65.1667 22.12 65.5C22.8933 65.82 23.4933 66.3133 23.92 66.98C24.3467 67.6333 24.56 68.4533 24.56 69.44C24.56 70.44 24.3467 71.2667 23.92 71.92C23.4933 72.56 22.8933 73.04 22.12 73.36C21.3467 73.68 20.44 73.84 19.4 73.84H16.42V78.52C16.42 78.6533 16.3733 78.7667 16.28 78.86C16.2 78.9533 16.0867 79 15.94 79H14.04ZM16.38 71.62H19.3C20.0733 71.62 20.6667 71.44 21.08 71.08C21.4933 70.7067 21.7 70.16 21.7 69.44C21.7 68.7733 21.5067 68.24 21.12 67.84C20.7333 67.4267 20.1267 67.22 19.3 67.22H16.38V71.62ZM30.9969 79.2C29.5169 79.2 28.3435 78.7733 27.4769 77.92C26.6102 77.0667 26.1435 75.8533 26.0769 74.28C26.0635 74.1467 26.0569 73.98 26.0569 73.78C26.0569 73.5667 26.0635 73.4 26.0769 73.28C26.1302 72.28 26.3569 71.4133 26.7569 70.68C27.1702 69.9467 27.7369 69.3867 28.4569 69C29.1769 68.6 30.0235 68.4 30.9969 68.4C32.0769 68.4 32.9835 68.6267 33.7169 69.08C34.4502 69.52 35.0035 70.14 35.3769 70.94C35.7502 71.7267 35.9369 72.64 35.9369 73.68V74.1C35.9369 74.2333 35.8902 74.3467 35.7969 74.44C35.7035 74.5333 35.5835 74.58 35.4369 74.58H28.7969C28.7969 74.58 28.7969 74.6 28.7969 74.64C28.7969 74.68 28.7969 74.7133 28.7969 74.74C28.8102 75.2067 28.8969 75.64 29.0569 76.04C29.2302 76.4267 29.4769 76.74 29.7969 76.98C30.1302 77.22 30.5235 77.34 30.9769 77.34C31.3502 77.34 31.6635 77.2867 31.9169 77.18C32.1702 77.06 32.3769 76.9267 32.5369 76.78C32.6969 76.6333 32.8102 76.5133 32.8769 76.42C32.9969 76.26 33.0902 76.1667 33.1569 76.14C33.2369 76.1 33.3502 76.08 33.4969 76.08H35.2169C35.3502 76.08 35.4569 76.12 35.5369 76.2C35.6302 76.28 35.6702 76.38 35.6569 76.5C35.6435 76.7133 35.5302 76.9733 35.3169 77.28C35.1169 77.5867 34.8235 77.8867 34.4369 78.18C34.0502 78.4733 33.5635 78.72 32.9769 78.92C32.4035 79.1067 31.7435 79.2 30.9969 79.2ZM28.7969 72.9H33.2169V72.84C33.2169 72.32 33.1302 71.8667 32.9569 71.48C32.7835 71.0933 32.5302 70.7867 32.1969 70.56C31.8635 70.3333 31.4635 70.22 30.9969 70.22C30.5302 70.22 30.1302 70.3333 29.7969 70.56C29.4635 70.7867 29.2102 71.0933 29.0369 71.48C28.8769 71.8667 28.7969 72.32 28.7969 72.84V72.9ZM42.8098 79.2C41.7432 79.2 40.8432 79.0133 40.1098 78.64C39.3898 78.2667 38.8365 77.74 38.4498 77.06C38.0765 76.38 37.8632 75.5867 37.8098 74.68C37.7965 74.44 37.7898 74.1467 37.7898 73.8C37.7898 73.4533 37.7965 73.16 37.8098 72.92C37.8632 72 38.0832 71.2067 38.4698 70.54C38.8698 69.86 39.4298 69.3333 40.1498 68.96C40.8832 68.5867 41.7698 68.4 42.8098 68.4C43.8498 68.4 44.7298 68.5867 45.4498 68.96C46.1832 69.3333 46.7432 69.86 47.1298 70.54C47.5298 71.2067 47.7565 72 47.8098 72.92C47.8232 73.16 47.8298 73.4533 47.8298 73.8C47.8298 74.1467 47.8232 74.44 47.8098 74.68C47.7565 75.5867 47.5365 76.38 47.1498 77.06C46.7765 77.74 46.2232 78.2667 45.4898 78.64C44.7698 79.0133 43.8765 79.2 42.8098 79.2ZM42.8098 77.22C43.5165 77.22 44.0632 77 44.4498 76.56C44.8365 76.1067 45.0498 75.4467 45.0898 74.58C45.1032 74.38 45.1098 74.12 45.1098 73.8C45.1098 73.48 45.1032 73.22 45.0898 73.02C45.0498 72.1667 44.8365 71.5133 44.4498 71.06C44.0632 70.6067 43.5165 70.38 42.8098 70.38C42.1032 70.38 41.5565 70.6067 41.1698 71.06C40.7832 71.5133 40.5698 72.1667 40.5298 73.02C40.5165 73.22 40.5098 73.48 40.5098 73.8C40.5098 74.12 40.5165 74.38 40.5298 74.58C40.5698 75.4467 40.7832 76.1067 41.1698 76.56C41.5565 77 42.1032 77.22 42.8098 77.22ZM50.6958 82.8C50.5624 82.8 50.4491 82.7533 50.3558 82.66C50.2624 82.5667 50.2158 82.4533 50.2158 82.32V69.08C50.2158 68.9467 50.2624 68.8333 50.3558 68.74C50.4491 68.6467 50.5624 68.6 50.6958 68.6H52.2758C52.4224 68.6 52.5358 68.6467 52.6158 68.74C52.7091 68.8333 52.7558 68.9467 52.7558 69.08V69.88C53.0758 69.4533 53.4958 69.1 54.0158 68.82C54.5358 68.54 55.1824 68.4 55.9558 68.4C56.6624 68.4 57.2758 68.5133 57.7958 68.74C58.3158 68.9667 58.7491 69.2933 59.0958 69.72C59.4424 70.1333 59.7091 70.6267 59.8958 71.2C60.0824 71.7733 60.1891 72.4067 60.2158 73.1C60.2291 73.3267 60.2358 73.56 60.2358 73.8C60.2358 74.04 60.2291 74.28 60.2158 74.52C60.2024 75.1867 60.1024 75.8067 59.9158 76.38C59.7291 76.94 59.4558 77.4333 59.0958 77.86C58.7491 78.2733 58.3158 78.6 57.7958 78.84C57.2758 79.08 56.6624 79.2 55.9558 79.2C55.2358 79.2 54.6224 79.0733 54.1158 78.82C53.6091 78.5533 53.1958 78.2067 52.8758 77.78V82.32C52.8758 82.4533 52.8291 82.5667 52.7358 82.66C52.6558 82.7533 52.5424 82.8 52.3958 82.8H50.6958ZM55.2158 77.06C55.7891 77.06 56.2358 76.94 56.5558 76.7C56.8758 76.4467 57.1024 76.12 57.2358 75.72C57.3824 75.32 57.4691 74.88 57.4958 74.4C57.5224 74 57.5224 73.6 57.4958 73.2C57.4691 72.72 57.3824 72.28 57.2358 71.88C57.1024 71.48 56.8758 71.16 56.5558 70.92C56.2358 70.6667 55.7891 70.54 55.2158 70.54C54.6691 70.54 54.2224 70.6667 53.8758 70.92C53.5424 71.1733 53.2958 71.5 53.1358 71.9C52.9891 72.2867 52.9024 72.6867 52.8758 73.1C52.8624 73.34 52.8558 73.5933 52.8558 73.86C52.8558 74.1267 52.8624 74.3867 52.8758 74.64C52.8891 75.04 52.9824 75.4267 53.1558 75.8C53.3291 76.16 53.5824 76.46 53.9158 76.7C54.2491 76.94 54.6824 77.06 55.2158 77.06ZM63.1309 79C62.9976 79 62.8843 78.9533 62.7909 78.86C62.6976 78.7667 62.6509 78.6533 62.6509 78.52V65.28C62.6509 65.1467 62.6976 65.0333 62.7909 64.94C62.8843 64.8467 62.9976 64.8 63.1309 64.8H64.7909C64.9243 64.8 65.0376 64.8467 65.1309 64.94C65.2243 65.0333 65.2709 65.1467 65.2709 65.28V78.52C65.2709 78.6533 65.2243 78.7667 65.1309 78.86C65.0376 78.9533 64.9243 79 64.7909 79H63.1309ZM72.5539 79.2C71.0739 79.2 69.9006 78.7733 69.0339 77.92C68.1672 77.0667 67.7006 75.8533 67.6339 74.28C67.6206 74.1467 67.6139 73.98 67.6139 73.78C67.6139 73.5667 67.6206 73.4 67.6339 73.28C67.6872 72.28 67.9139 71.4133 68.3139 70.68C68.7272 69.9467 69.2939 69.3867 70.0139 69C70.7339 68.6 71.5806 68.4 72.5539 68.4C73.6339 68.4 74.5406 68.6267 75.2739 69.08C76.0072 69.52 76.5606 70.14 76.9339 70.94C77.3072 71.7267 77.4939 72.64 77.4939 73.68V74.1C77.4939 74.2333 77.4472 74.3467 77.3539 74.44C77.2606 74.5333 77.1406 74.58 76.9939 74.58H70.3539C70.3539 74.58 70.3539 74.6 70.3539 74.64C70.3539 74.68 70.3539 74.7133 70.3539 74.74C70.3672 75.2067 70.4539 75.64 70.6139 76.04C70.7872 76.4267 71.0339 76.74 71.3539 76.98C71.6872 77.22 72.0806 77.34 72.5339 77.34C72.9072 77.34 73.2206 77.2867 73.4739 77.18C73.7272 77.06 73.9339 76.9267 74.0939 76.78C74.2539 76.6333 74.3672 76.5133 74.4339 76.42C74.5539 76.26 74.6472 76.1667 74.7139 76.14C74.7939 76.1 74.9072 76.08 75.0539 76.08H76.7739C76.9072 76.08 77.0139 76.12 77.0939 76.2C77.1872 76.28 77.2272 76.38 77.2139 76.5C77.2006 76.7133 77.0872 76.9733 76.8739 77.28C76.6739 77.5867 76.3806 77.8867 75.9939 78.18C75.6072 78.4733 75.1206 78.72 74.5339 78.92C73.9606 79.1067 73.3006 79.2 72.5539 79.2ZM70.3539 72.9H74.7739V72.84C74.7739 72.32 74.6872 71.8667 74.5139 71.48C74.3406 71.0933 74.0872 70.7867 73.7539 70.56C73.4206 70.3333 73.0206 70.22 72.5539 70.22C72.0872 70.22 71.6872 70.3333 71.3539 70.56C71.0206 70.7867 70.7672 71.0933 70.5939 71.48C70.4339 71.8667 70.3539 72.32 70.3539 72.84V72.9Z" fill="#101010" fill-opacity="0.87"/>
<path d="M85.2272 79C85.0805 79 84.9605 78.9533 84.8672 78.86C84.7739 78.7667 84.7272 78.6533 84.7272 78.52V65.5C84.7272 65.3533 84.7739 65.2333 84.8672 65.14C84.9605 65.0467 85.0805 65 85.2272 65H86.8072C86.9939 65 87.1339 65.0533 87.2272 65.16C87.3205 65.2533 87.3805 65.3267 87.4072 65.38L91.2672 72.58L95.1672 65.38C95.1939 65.3267 95.2539 65.2533 95.3472 65.16C95.4405 65.0533 95.5805 65 95.7672 65H97.3272C97.4739 65 97.5939 65.0467 97.6872 65.14C97.7805 65.2333 97.8272 65.3533 97.8272 65.5V78.52C97.8272 78.6533 97.7805 78.7667 97.6872 78.86C97.5939 78.9533 97.4739 79 97.3272 79H95.6472C95.5005 79 95.3805 78.9533 95.2872 78.86C95.2072 78.7667 95.1672 78.6533 95.1672 78.52V69.86L92.3672 75.2C92.3005 75.32 92.2139 75.4267 92.1072 75.52C92.0005 75.6 91.8605 75.64 91.6872 75.64H90.8672C90.6805 75.64 90.5339 75.6 90.4272 75.52C90.3339 75.4267 90.2539 75.32 90.1872 75.2L87.3872 69.86V78.52C87.3872 78.6533 87.3405 78.7667 87.2472 78.86C87.1539 78.9533 87.0405 79 86.9072 79H85.2272ZM103.868 79.2C103.175 79.2 102.548 79.0667 101.988 78.8C101.428 78.52 100.981 78.1533 100.648 77.7C100.328 77.2333 100.168 76.7133 100.168 76.14C100.168 75.2067 100.541 74.4667 101.288 73.92C102.048 73.36 103.048 72.9867 104.288 72.8L107.028 72.4V71.98C107.028 71.42 106.888 70.9867 106.608 70.68C106.328 70.3733 105.848 70.22 105.168 70.22C104.688 70.22 104.295 70.32 103.988 70.52C103.695 70.7067 103.475 70.96 103.328 71.28C103.221 71.4533 103.068 71.54 102.868 71.54H101.288C101.141 71.54 101.028 71.5 100.948 71.42C100.881 71.34 100.848 71.2333 100.848 71.1C100.861 70.8867 100.948 70.6267 101.108 70.32C101.268 70.0133 101.521 69.72 101.868 69.44C102.215 69.1467 102.661 68.9 103.208 68.7C103.755 68.5 104.415 68.4 105.188 68.4C106.028 68.4 106.735 68.5067 107.308 68.72C107.895 68.92 108.361 69.1933 108.708 69.54C109.055 69.8867 109.308 70.2933 109.468 70.76C109.628 71.2267 109.708 71.72 109.708 72.24V78.52C109.708 78.6533 109.661 78.7667 109.568 78.86C109.475 78.9533 109.361 79 109.228 79H107.608C107.461 79 107.341 78.9533 107.248 78.86C107.168 78.7667 107.128 78.6533 107.128 78.52V77.74C106.955 77.9933 106.721 78.2333 106.428 78.46C106.135 78.6733 105.775 78.8533 105.348 79C104.935 79.1333 104.441 79.2 103.868 79.2ZM104.548 77.3C105.015 77.3 105.435 77.2 105.808 77C106.195 76.8 106.495 76.4933 106.708 76.08C106.935 75.6533 107.048 75.12 107.048 74.48V74.06L105.048 74.38C104.261 74.5 103.675 74.6933 103.288 74.96C102.901 75.2267 102.708 75.5533 102.708 75.94C102.708 76.2333 102.795 76.4867 102.968 76.7C103.155 76.9 103.388 77.0533 103.668 77.16C103.948 77.2533 104.241 77.3 104.548 77.3ZM112.924 79C112.791 79 112.677 78.9533 112.584 78.86C112.491 78.7667 112.444 78.6533 112.444 78.52V65.28C112.444 65.1467 112.491 65.0333 112.584 64.94C112.677 64.8467 112.791 64.8 112.924 64.8H114.544C114.691 64.8 114.804 64.8467 114.884 64.94C114.977 65.0333 115.024 65.1467 115.024 65.28V72.12L118.384 68.94C118.504 68.8333 118.611 68.7533 118.704 68.7C118.797 68.6333 118.937 68.6 119.124 68.6H120.984C121.117 68.6 121.224 68.64 121.304 68.72C121.384 68.8 121.424 68.9067 121.424 69.04C121.424 69.0933 121.411 69.1533 121.384 69.22C121.357 69.2867 121.304 69.3467 121.224 69.4L117.104 73.26L121.724 78.22C121.857 78.3533 121.924 78.4667 121.924 78.56C121.924 78.6933 121.877 78.8 121.784 78.88C121.704 78.96 121.604 79 121.484 79H119.584C119.384 79 119.237 78.9733 119.144 78.92C119.064 78.8533 118.964 78.7667 118.844 78.66L115.024 74.64V78.52C115.024 78.6533 114.977 78.7667 114.884 78.86C114.804 78.9533 114.691 79 114.544 79H112.924ZM127.562 79.2C126.082 79.2 124.908 78.7733 124.042 77.92C123.175 77.0667 122.708 75.8533 122.642 74.28C122.628 74.1467 122.622 73.98 122.622 73.78C122.622 73.5667 122.628 73.4 122.642 73.28C122.695 72.28 122.922 71.4133 123.322 70.68C123.735 69.9467 124.302 69.3867 125.022 69C125.742 68.6 126.588 68.4 127.562 68.4C128.642 68.4 129.548 68.6267 130.282 69.08C131.015 69.52 131.568 70.14 131.942 70.94C132.315 71.7267 132.502 72.64 132.502 73.68V74.1C132.502 74.2333 132.455 74.3467 132.362 74.44C132.268 74.5333 132.148 74.58 132.002 74.58H125.362C125.362 74.58 125.362 74.6 125.362 74.64C125.362 74.68 125.362 74.7133 125.362 74.74C125.375 75.2067 125.462 75.64 125.622 76.04C125.795 76.4267 126.042 76.74 126.362 76.98C126.695 77.22 127.088 77.34 127.542 77.34C127.915 77.34 128.228 77.2867 128.482 77.18C128.735 77.06 128.942 76.9267 129.102 76.78C129.262 76.6333 129.375 76.5133 129.442 76.42C129.562 76.26 129.655 76.1667 129.722 76.14C129.802 76.1 129.915 76.08 130.062 76.08H131.782C131.915 76.08 132.022 76.12 132.102 76.2C132.195 76.28 132.235 76.38 132.222 76.5C132.208 76.7133 132.095 76.9733 131.882 77.28C131.682 77.5867 131.388 77.8867 131.002 78.18C130.615 78.4733 130.128 78.72 129.542 78.92C128.968 79.1067 128.308 79.2 127.562 79.2ZM125.362 72.9H129.782V72.84C129.782 72.32 129.695 71.8667 129.522 71.48C129.348 71.0933 129.095 70.7867 128.762 70.56C128.428 70.3333 128.028 70.22 127.562 70.22C127.095 70.22 126.695 70.3333 126.362 70.56C126.028 70.7867 125.775 71.0933 125.602 71.48C125.442 71.8667 125.362 72.32 125.362 72.84V72.9ZM139.436 79C138.636 79 137.962 78.86 137.416 78.58C136.869 78.3 136.462 77.8867 136.196 77.34C135.929 76.78 135.796 76.0867 135.796 75.26V70.72H134.216C134.082 70.72 133.969 70.6733 133.876 70.58C133.782 70.4867 133.736 70.3733 133.736 70.24V69.08C133.736 68.9467 133.782 68.8333 133.876 68.74C133.969 68.6467 134.082 68.6 134.216 68.6H135.796V65.28C135.796 65.1467 135.836 65.0333 135.916 64.94C136.009 64.8467 136.129 64.8 136.276 64.8H137.896C138.029 64.8 138.142 64.8467 138.236 64.94C138.329 65.0333 138.376 65.1467 138.376 65.28V68.6H140.876C141.009 68.6 141.122 68.6467 141.216 68.74C141.309 68.8333 141.356 68.9467 141.356 69.08V70.24C141.356 70.3733 141.309 70.4867 141.216 70.58C141.122 70.6733 141.009 70.72 140.876 70.72H138.376V75.06C138.376 75.6067 138.469 76.0333 138.656 76.34C138.856 76.6467 139.196 76.8 139.676 76.8H141.056C141.189 76.8 141.302 76.8467 141.396 76.94C141.489 77.0333 141.536 77.1467 141.536 77.28V78.52C141.536 78.6533 141.489 78.7667 141.396 78.86C141.302 78.9533 141.189 79 141.056 79H139.436ZM143.96 79C143.827 79 143.713 78.9533 143.62 78.86C143.527 78.7667 143.48 78.6533 143.48 78.52V65.28C143.48 65.1467 143.527 65.0333 143.62 64.94C143.713 64.8467 143.827 64.8 143.96 64.8H145.74C145.887 64.8 146 64.8467 146.08 64.94C146.173 65.0333 146.22 65.1467 146.22 65.28V69.84C146.58 69.4133 147.02 69.0667 147.54 68.8C148.06 68.5333 148.7 68.4 149.46 68.4C150.273 68.4 150.98 68.5867 151.58 68.96C152.193 69.32 152.667 69.8333 153 70.5C153.333 71.1667 153.5 71.9667 153.5 72.9V78.52C153.5 78.6533 153.453 78.7667 153.36 78.86C153.267 78.9533 153.153 79 153.02 79H151.22C151.087 79 150.973 78.9533 150.88 78.86C150.787 78.7667 150.74 78.6533 150.74 78.52V73.02C150.74 72.2467 150.547 71.64 150.16 71.2C149.787 70.76 149.24 70.54 148.52 70.54C147.827 70.54 147.267 70.76 146.84 71.2C146.427 71.64 146.22 72.2467 146.22 73.02V78.52C146.22 78.6533 146.173 78.7667 146.08 78.86C146 78.9533 145.887 79 145.74 79H143.96Z" fill="#00897B"/>
</svg>
